<?xml version="1.0" encoding="utf-8"?>
<!-- Generator: Adobe Illustrator 27.5.0, SVG Export Plug-In . SVG Version: 6.00 Build 0)  -->
<svg version="1.1" xmlns="http://www.w3.org/2000/svg" xmlns:xlink="http://www.w3.org/1999/xlink" x="0px" y="0px"
	 viewBox="0 0 1200 1200" style="enable-background:new 0 0 1200 1200;" xml:space="preserve">
<g id="Background">
	<rect style="fill:#F5F4F3;" width="1200" height="1200"/>
</g>
<g id="Graphic_Elements">
	
		<line id="Graphic_Elements_2_" style="fill:none;stroke:#000000;stroke-width:3;stroke-miterlimit:10;" x1="472.175" y1="874.625" x2="1056.354" y2="874.625"/>
	<g id="Graphic_Elements_1_">
		<path style="fill:#F5F4F3;" d="M323.587,457.963c-0.271-30.258,14.705-60.498,23.246-89.666
			c7.842-26.78,15.113-53.749,20.757-81.086l0.374-0.71c5.329,3.545,11.812,4.385,18.378,6.69
			c18.89,6.632,36.564,16.739,51.812,29.717c7.958,6.773,15.318,14.384,20.815,23.271c6.307,10.198,9.986,21.763,13.608,33.193
			c11.453,36.147,22.81,72.324,34.274,108.467c2.687,8.472,34.045,93.253,31.094,95.3c-11.659,8.087-18.901,13.029-33.358,16.117
			c-2.892,0.618-26.302,2.938-25.269,7.062c5.084,20.296,24.118,121.877,23.466,122.814c-0.595,0.856-107.348,20.075-156.076,31.209
			c-8.731-52.824-12.468-107.508-17.78-160.784c-17.124,52.641-28.797,108.08-47.754,159.903
			c-18.926-0.77-35.977-4.494-54.721-9.119c-5.309-1.31-63.56-15.951-63.63-15.7c13.359-48.778,29.609-97.703,46.529-145.363
			c-21.368-12.768-43.886-23.61-67.192-32.352c18.398-46.173,34.236-93.505,56.785-137.799
			c22.549-44.294,52.539-86.037,93.601-114.044c8.59-5.859,20.008-11.715,30.398-12.127l-0.088-0.002
			C329.745,336.074,323.587,457.963,323.587,457.963z"/>
		<path d="M332.189,208.152c1.881-4.223,4.703-7.78,8.922-9.566c2.836-1.201,5.987-1.424,9.067-1.386
			c4.407,0.054,9.011,0.689,12.611,3.233c6.066,4.287,7.56,12.626,7.448,20.053c-0.026,1.702-0.07,3.54,0.907,4.933
			c4.206,6.002,29.061,1.608,35.639,1.62c16.874,0.032,33.749,0.224,50.619,0.578c10.819,0.227,21.792,0.544,32.142,3.701
			c-2.918,4.509-8.989,5.478-14.332,6.023c-60.091,6.132-120.508,12.272-180.792,8.477c-20.67-1.301-45.644-1.281-65.021-9.284
			c-0.664-0.274-1.37-0.614-1.693-1.256c-0.694-1.381,0.819-2.828,2.196-3.527c8.179-4.152,19.916-3.226,28.94-3.972
			c15.057-1.244,30.031,1.052,45.07-0.968c6.11-0.821,24.082,1.994,25.2-6.777C329.619,216.056,330.543,211.849,332.189,208.152z"/>
		
			<path style="fill:none;stroke:#000000;stroke-width:5.8153;stroke-linecap:round;stroke-linejoin:round;stroke-miterlimit:10;" d="
			M346.709,760.341c-8.731-52.824-12.469-107.508-17.78-160.784c-11.823,36.344-21.049,74.021-31.866,110.922
			c0.163,2.674,0.166,5.342-0.119,8c-1.008,9.393-1.859,18.536-1.879,28.092c-0.098,46.203,6.042,92.187,10.936,138.047
			c2.69,25.208,3.849,49.842,2.767,75.126c-0.194,4.523,0.724,9.601,4.384,12.264c2.44,1.776,5.644,2.116,8.657,1.956
			c1.759-0.093,3.648-0.401,4.891-1.648c0.855-0.858,1.282-2.045,1.624-3.207c3.311-11.244,2.173-23.953,2.706-35.895
			c1.126-25.243,1.611-51.858,6.103-76.821c5.794-32.19,10.466-66.615,21.404-97.413
			C358.324,759.58,351.972,759.139,346.709,760.341z"/>
		
			<path style="fill:none;stroke:#000000;stroke-width:5.8153;stroke-linecap:round;stroke-linejoin:round;stroke-miterlimit:10;" d="
			M358.538,758.981c-7.343,20.675-11.859,42.985-15.79,65.156c0.423,40.753,3.156,81.579,11.622,121.484
			c1.128,5.313,2.502,10.809,5.995,14.967c1.604,1.909,3.883,3.555,6.366,3.343c2.486-0.213,4.497-2.287,5.393-4.616
			c2.238-5.821-0.323-15.312-0.298-21.542c0.041-10.473,0.073-20.945,0.11-31.418c0.1-28.526,3.813-56.931,8.921-84.954
			c3.485-19.122,7.273-38.204,12.134-57.03c1.354-5.242,2.51-10.091,4.51-14.665C378.43,753.496,358.324,759.58,358.538,758.981z"/>
		<path d="M331.03,933.214c1.126-25.243,1.611-51.858,6.103-76.821c3.822-21.239,7.168-43.447,12.136-64.949
			c-0.441,0.043-0.896,0.095-1.386,0.164c-16.268,2.297-33.025,1.068-48.785-3.576c-0.87,0.051-1.751,0.033-2.637-0.017
			c2.078,32.284,6.111,64.474,9.539,96.603c2.69,25.208,3.849,49.842,2.767,75.126c-0.194,4.523,0.724,9.601,4.384,12.264
			c2.44,1.776,5.644,2.116,8.657,1.956c1.759-0.093,3.648-0.401,4.891-1.648c0.855-0.858,1.282-2.045,1.624-3.207
			C331.635,957.865,330.497,945.156,331.03,933.214z"/>
		<path d="M380.857,821.4c2.179-11.959,4.477-23.902,7.083-35.777c-0.441,0.207-0.865,0.441-1.251,0.733
			c-11.016-2.395-22.017-4.858-33.003-7.389c-0.433-0.1-0.844-0.194-1.243-0.285c-3.999,14.831-6.987,30.176-9.695,45.455
			c0.423,40.753,3.156,81.579,11.622,121.484c1.128,5.313,2.502,10.809,5.995,14.967c1.604,1.909,3.883,3.555,6.366,3.343
			c2.486-0.213,4.497-2.287,5.393-4.616c2.238-5.821-0.323-15.312-0.298-21.542c0.041-10.473,0.073-20.945,0.11-31.418
			C372.036,877.828,375.749,849.423,380.857,821.4z"/>
		<path style="fill:none;stroke:#000000;stroke-width:5.7644;stroke-miterlimit:10;" d="M368.536,286.501
			c-1.015-0.675-1.988-1.448-2.911-2.349c-1.651-1.609-14.69-23.702-14.25-24.296c6.674-9.014,9.446-22.78,9.027-33.814
			c-0.053-1.397-24.392,0.373-27.012,0.25c-3.757,9.9-7.481,22.73-0.205,32.304c1.093,1.439,2.498,2.823,2.677,4.621
			c0.113,1.135-0.294,2.251-0.7,3.318c-3.43,8.997-7.319,17.819-11.646,26.421"/>
		<g>
			
				<path style="fill:none;stroke:#000000;stroke-width:5.8153;stroke-linecap:round;stroke-linejoin:round;stroke-miterlimit:10;" d="
				M323.587,457.963c-0.271-30.258,14.705-60.498,23.246-89.666c7.842-26.78,15.113-53.749,20.757-81.086l0.374-0.71
				c5.329,3.545,11.812,4.385,18.378,6.69c18.89,6.632,36.564,16.739,51.812,29.717c7.958,6.773,15.318,14.384,20.815,23.271
				c6.307,10.198,9.986,21.763,13.608,33.193c11.453,36.147,22.81,72.324,34.274,108.467c2.687,8.472,34.045,93.253,31.094,95.3
				c-11.659,8.087-18.901,13.029-33.358,16.117c-2.892,0.618-26.302,2.938-25.269,7.062c5.084,20.296,24.118,121.877,23.466,122.814
				c-0.595,0.856-107.348,20.075-156.076,31.209c-8.731-52.824-12.468-107.508-17.78-160.784
				c-17.124,52.641-28.797,108.08-47.754,159.903c-18.926-0.77-35.977-4.494-54.721-9.119c-5.309-1.31-63.56-15.951-63.63-15.7
				c13.359-48.778,29.609-97.703,46.529-145.363c-21.368-12.768-43.886-23.61-67.192-32.352
				c18.398-46.173,34.236-93.505,56.785-137.799c22.549-44.294,52.539-86.037,93.601-114.044
				c8.59-5.859,20.008-11.715,30.398-12.127l-0.088-0.002C329.745,336.074,323.587,457.963,323.587,457.963z"/>
			
				<path style="fill:none;stroke:#000000;stroke-width:5.8153;stroke-linecap:round;stroke-linejoin:round;stroke-miterlimit:10;" d="
				M209.353,589.279c0,0,55.872-160.019,86.274-231.334"/>
			
				<path style="fill:none;stroke:#000000;stroke-width:5.8153;stroke-linecap:round;stroke-linejoin:round;stroke-miterlimit:10;" d="
				M435.617,401.781c0,0,23.332,96.862,43.701,204.537"/>
			
				<path style="fill:none;stroke:#000000;stroke-width:4.9641;stroke-linecap:round;stroke-linejoin:round;stroke-miterlimit:10;" d="
				M323.623,458.295c0.304,33.867,4.266,127.987,5.341,141.594"/>
		</g>
		<g>
			<defs>
				<path id="SVGID_1_" d="M323.587,457.963c-0.271-30.258,14.705-60.498,23.246-89.666c7.842-26.78,15.113-53.749,20.757-81.086
					l0.374-0.71c5.329,3.545,11.812,4.385,18.378,6.69c18.89,6.632,36.564,16.739,51.812,29.717
					c7.958,6.773,15.318,14.384,20.815,23.271c6.307,10.198,9.986,21.763,13.608,33.193c11.453,36.147,22.81,72.324,34.274,108.467
					c2.687,8.472,34.045,93.253,31.094,95.3c-11.659,8.087-18.901,13.029-33.358,16.117c-2.892,0.618-26.302,2.938-25.269,7.062
					c5.084,20.296,24.118,121.877,23.466,122.814c-0.595,0.856-107.348,20.075-156.076,31.209
					c-8.731-52.824-12.468-107.508-17.78-160.784c-17.124,52.641-28.797,108.08-47.754,159.903
					c-18.926-0.77-35.977-4.494-54.721-9.119c-5.309-1.31-63.56-15.951-63.63-15.7c13.359-48.778,29.609-97.703,46.529-145.363
					c-21.368-12.768-43.886-23.61-67.192-32.352c18.398-46.173,34.236-93.505,56.785-137.799
					c22.549-44.294,52.539-86.037,93.601-114.044c8.59-5.859,20.008-11.715,30.398-12.127l-0.088-0.002
					C329.745,336.074,323.587,457.963,323.587,457.963z"/>
			</defs>
			<clipPath id="SVGID_00000083088468676081756260000015039033740483785655_">
				<use xlink:href="#SVGID_1_"  style="overflow:visible;"/>
			</clipPath>
			<g style="clip-path:url(#SVGID_00000083088468676081756260000015039033740483785655_);">
				<g>
					<g>
						<path d="M199.858,625.792c-2.511,0-5.022-1.032-6.797-2.807c-1.775-1.775-2.807-4.286-2.807-6.797
							c0-2.511,1.031-5.022,2.807-6.797c3.55-3.55,10.05-3.55,13.593,0c1.775,1.775,2.807,4.286,2.807,6.797
							c0,2.511-1.031,5.022-2.807,6.797C204.888,624.76,202.449,625.792,199.858,625.792z"/>
						<path d="M279.284,625.792c-2.511,0-4.949-1.032-6.797-2.807c-1.775-1.847-2.807-4.286-2.807-6.797
							c0-2.511,1.031-4.95,2.807-6.797c3.622-3.55,9.979-3.55,13.593,0c1.775,1.775,2.807,4.286,2.807,6.797
							c0,2.511-1.031,5.022-2.807,6.797C284.313,624.76,281.794,625.792,279.284,625.792z"/>
					</g>
					<g>
						<path d="M242.342,221.277c-2.511,0-4.95-1.031-6.797-2.807c-1.775-1.775-2.807-4.286-2.807-6.797
							c0-2.51,1.031-5.022,2.807-6.796c3.55-3.55,9.979-3.55,13.593,0c1.775,1.775,2.807,4.286,2.807,6.796
							c0,2.511-1.032,5.022-2.807,6.797C247.371,220.246,244.852,221.277,242.342,221.277z"/>
						<path d="M262.66,226.819c-2.511,0-5.022-1.032-6.797-2.807c-1.775-1.775-2.807-4.286-2.807-6.797
							c0-2.51,1.031-4.95,2.807-6.797c3.622-3.55,10.05-3.55,13.593,0c1.775,1.847,2.807,4.286,2.807,6.797
							c0,2.511-1.031,5.022-2.807,6.797C267.689,225.787,265.17,226.819,262.66,226.819z"/>
						<path d="M284.825,213.889c-2.511,0-5.022-1.031-6.797-2.807c-1.775-1.775-2.807-4.286-2.807-6.797
							c0-2.51,1.031-5.022,2.807-6.796c3.55-3.55,10.05-3.55,13.593,0c1.775,1.775,2.807,4.286,2.807,6.796
							c0,2.511-1.031,5.022-2.807,6.797C289.854,212.857,287.415,213.889,284.825,213.889z"/>
						<path d="M314.378,208.348c-2.51,0-4.949-1.031-6.797-2.807c-1.775-1.775-2.807-4.286-2.807-6.797
							c0-2.51,1.031-5.022,2.807-6.796c3.694-3.623,10.05-3.55,13.593,0c1.775,1.775,2.807,4.286,2.807,6.796
							c0,2.511-1.032,5.022-2.807,6.797C319.408,207.316,316.889,208.348,314.378,208.348z"/>
						<path d="M331.002,234.207c-2.511,0-5.022-1.031-6.797-2.807c-1.775-1.775-2.807-4.286-2.807-6.797s1.031-5.022,2.807-6.797
							c3.622-3.55,10.051-3.55,13.593,0c1.775,1.847,2.807,4.286,2.807,6.797s-1.031,5.022-2.807,6.797
							C336.032,233.176,333.513,234.207,331.002,234.207z"/>
						<path d="M305.143,236.054c-2.51,0-5.022-1.031-6.796-2.807c-1.776-1.775-2.807-4.286-2.807-6.797
							c0-2.511,1.031-5.022,2.807-6.797c3.622-3.55,10.05-3.55,13.593,0c1.776,1.775,2.807,4.286,2.807,6.797
							c0,2.511-1.031,5.022-2.807,6.797C310.172,235.023,307.733,236.054,305.143,236.054z"/>
						<path d="M279.284,241.595c-2.511,0-4.949-1.031-6.797-2.807c-1.775-1.775-2.807-4.286-2.807-6.797s1.031-4.949,2.807-6.797
							c3.622-3.55,10.05-3.55,13.593,0c1.775,1.775,2.807,4.286,2.807,6.797s-1.031,5.022-2.807,6.797
							C284.313,240.564,281.794,241.595,279.284,241.595z"/>
						<path d="M380.874,202.806c-2.511,0-4.949-1.031-6.797-2.807c-1.776-1.775-2.807-4.286-2.807-6.797
							c0-2.511,1.031-5.022,2.807-6.797c3.55-3.55,10.05-3.55,13.593,0c1.776,1.775,2.807,4.286,2.807,6.797
							c0,2.51-1.031,5.022-2.807,6.797C385.903,201.775,383.384,202.806,380.874,202.806z"/>
						<path d="M391.956,228.666c-2.51,0-4.949-1.031-6.796-2.807c-1.776-1.775-2.807-4.286-2.807-6.797
							c0-2.511,1.031-5.022,2.807-6.797c3.55-3.55,10.05-3.622,13.593,0c1.776,1.775,2.807,4.286,2.807,6.797
							c0,2.511-1.031,5.022-2.807,6.797C396.986,227.634,394.467,228.666,391.956,228.666z"/>
						<path d="M356.862,226.819c-2.511,0-4.949-1.032-6.797-2.807c-1.775-1.775-2.807-4.286-2.807-6.797
							c0-2.51,1.031-5.022,2.807-6.797c3.55-3.55,10.05-3.55,13.593,0c1.775,1.775,2.807,4.286,2.807,6.797
							c0,2.511-1.031,5.022-2.807,6.797C361.891,225.787,359.372,226.819,356.862,226.819z"/>
						<path d="M366.097,260.066c-2.511,0-4.949-1.031-6.797-2.807c-1.775-1.775-2.807-4.286-2.807-6.797
							c0-2.511,1.031-5.022,2.807-6.797c3.622-3.55,10.05-3.55,13.593,0c1.775,1.775,2.807,4.286,2.807,6.797
							c0,2.511-1.031,5.022-2.807,6.797C371.126,259.035,368.608,260.066,366.097,260.066z"/>
						<path d="M334.697,258.219c-2.511,0-4.949-1.031-6.797-2.807c-1.775-1.775-2.807-4.286-2.807-6.797s1.031-5.022,2.807-6.797
							c3.622-3.55,10.05-3.55,13.593,0c1.775,1.775,2.807,4.286,2.807,6.797s-1.031,5.022-2.807,6.797
							C339.726,257.188,337.207,258.219,334.697,258.219z"/>
						<path d="M421.51,239.748c-2.511,0-5.022-1.031-6.797-2.807c-1.775-1.775-2.807-4.286-2.807-6.797
							c0-2.511,1.031-5.022,2.807-6.797c3.622-3.55,10.051-3.55,13.593,0c1.775,1.775,2.807,4.286,2.807,6.797
							c0,2.511-1.031,5.022-2.807,6.797C426.539,238.717,424.1,239.748,421.51,239.748z"/>
						<path d="M414.122,213.889c-2.511,0-4.95-1.031-6.797-2.807c-1.775-1.775-2.807-4.286-2.807-6.797
							c0-2.51,1.031-5.022,2.807-6.796c3.622-3.55,10.05-3.55,13.593,0c1.775,1.775,2.807,4.286,2.807,6.796
							c0,2.511-1.031,5.022-2.807,6.797C419.151,212.857,416.632,213.889,414.122,213.889z"/>
						<path d="M439.981,210.195c-2.511,0-4.949-1.031-6.797-2.807c-1.775-1.775-2.807-4.286-2.807-6.797
							c0-2.51,1.031-5.022,2.807-6.797c3.622-3.55,9.979-3.55,13.593,0c1.775,1.775,2.807,4.286,2.807,6.797
							c0,2.511-1.031,5.022-2.807,6.797C445.01,209.163,442.492,210.195,439.981,210.195z"/>
						<path d="M451.064,241.595c-2.511,0-4.949-1.031-6.797-2.807c-1.775-1.775-2.807-4.286-2.807-6.797s1.032-4.949,2.807-6.797
							c3.622-3.55,9.979-3.55,13.593,0c1.775,1.775,2.807,4.286,2.807,6.797s-1.031,5.022-2.807,6.797
							C456.093,240.564,453.574,241.595,451.064,241.595z"/>
						<path d="M482.464,245.29c-2.51,0-5.022-1.031-6.797-2.807c-1.776-1.775-2.807-4.286-2.807-6.797
							c0-2.511,1.031-5.022,2.807-6.797c3.622-3.55,10.05-3.55,13.593,0c1.775,1.775,2.807,4.286,2.807,6.797
							c0,2.511-1.031,5.022-2.807,6.797C487.494,244.258,485.055,245.29,482.464,245.29z"/>
						<path d="M471.382,219.43c-2.511,0-4.949-1.032-6.797-2.807c-1.775-1.775-2.807-4.286-2.807-6.797
							c0-2.511,1.031-5.022,2.807-6.797c3.55-3.55,10.05-3.55,13.593,0c1.776,1.775,2.807,4.286,2.807,6.797
							c0,2.511-1.031,5.022-2.807,6.797C476.411,218.399,473.892,219.43,471.382,219.43z"/>
						<path d="M502.782,223.124c-2.511,0-4.949-1.032-6.797-2.807c-1.775-1.775-2.807-4.286-2.807-6.797
							c0-2.51,1.031-5.022,2.807-6.797c3.622-3.55,10.051-3.55,13.593,0c1.775,1.775,2.807,4.286,2.807,6.797
							c0,2.511-1.031,5.022-2.807,6.797C507.812,222.093,505.293,223.124,502.782,223.124z"/>
						<path d="M251.577,252.678c-2.511,0-4.949-1.031-6.797-2.807c-1.775-1.775-2.807-4.286-2.807-6.797
							c0-2.511,1.031-5.022,2.807-6.797c3.622-3.55,10.051-3.55,13.593,0c1.775,1.775,2.807,4.286,2.807,6.797
							c0,2.511-1.031,5.022-2.807,6.797C256.606,251.646,254.088,252.678,251.577,252.678z"/>
						<path d="M222.023,232.36c-2.51,0-4.949-1.031-6.796-2.807c-1.776-1.775-2.807-4.286-2.807-6.797
							c0-2.511,1.031-4.949,2.807-6.797c3.622-3.55,10.05-3.55,13.593,0c1.775,1.847,2.807,4.286,2.807,6.797
							c0,2.511-1.031,5.022-2.807,6.797C227.053,231.328,224.614,232.36,222.023,232.36z"/>
						<path d="M210.941,256.372c-2.511,0-4.949-1.031-6.797-2.807c-1.775-1.775-2.807-4.286-2.807-6.797
							c0-2.511,1.031-5.022,2.807-6.797c3.55-3.55,10.05-3.623,13.593,0c1.776,1.775,2.807,4.286,2.807,6.797
							c0,2.511-1.031,4.949-2.807,6.797C215.97,255.341,213.451,256.372,210.941,256.372z"/>
						<path d="M185.082,605.474c-2.511,0-4.949-1.032-6.797-2.807c-1.775-1.775-2.807-4.286-2.807-6.797
							c0-2.511,1.031-5.022,2.807-6.797c3.622-3.55,10.05-3.55,13.593,0c1.775,1.847,2.807,4.286,2.807,6.797
							c0,2.511-1.031,5.022-2.807,6.797C190.111,604.442,187.592,605.474,185.082,605.474z"/>
						<path d="M185.082,605.474c-2.511,0-4.949-1.032-6.797-2.807c-1.775-1.775-2.807-4.286-2.807-6.797
							c0-2.511,1.031-5.022,2.807-6.797c3.622-3.55,10.05-3.55,13.593,0c1.775,1.847,2.807,4.286,2.807,6.797
							c0,2.511-1.031,5.022-2.807,6.797C190.111,604.442,187.592,605.474,185.082,605.474z"/>
						<path d="M210.941,598.085c-2.511,0-4.949-1.032-6.797-2.807c-1.775-1.775-2.807-4.286-2.807-6.797
							c0-2.511,1.031-5.022,2.807-6.797c3.622-3.55,10.05-3.55,13.593,0c1.776,1.775,2.807,4.286,2.807,6.797
							c0,2.511-1.031,5.022-2.807,6.797C215.97,597.053,213.451,598.085,210.941,598.085z"/>
						<path d="M251.577,605.474c-2.511,0-4.949-1.032-6.797-2.807c-1.775-1.775-2.807-4.286-2.807-6.797
							c0-2.511,1.031-5.022,2.807-6.797c3.622-3.55,10.051-3.55,13.593,0c1.775,1.775,2.807,4.286,2.807,6.797
							c0,2.511-1.031,5.022-2.807,6.797C256.606,604.442,254.167,605.474,251.577,605.474z"/>
						<path d="M290.366,601.779c-2.511,0-5.022-1.032-6.797-2.807c-1.775-1.775-2.807-4.286-2.807-6.797
							c0-2.511,1.031-5.022,2.807-6.797c3.622-3.55,10.05-3.55,13.593,0c1.776,1.775,2.807,4.286,2.807,6.797
							c0,2.511-1.031,5.022-2.807,6.797C295.395,600.748,292.956,601.779,290.366,601.779z"/>
						<path d="M316.225,605.474c-2.51,0-4.949-1.032-6.797-2.807c-1.775-1.775-2.807-4.286-2.807-6.797
							c0-2.511,1.031-5.022,2.807-6.797c3.622-3.55,10.05-3.55,13.593,0c1.775,1.775,2.807,4.286,2.807,6.797
							c0,2.511-1.032,4.95-2.807,6.797C321.255,604.442,318.736,605.474,316.225,605.474z"/>
						<path d="M353.167,601.779c-2.511,0-4.949-1.032-6.797-2.807c-1.775-1.775-2.807-4.286-2.807-6.797
							c0-2.511,1.031-5.022,2.807-6.797c3.622-3.55,10.05-3.55,13.593,0c1.775,1.775,2.807,4.286,2.807,6.797
							c0,2.511-1.031,5.022-2.807,6.797C358.197,600.748,355.678,601.779,353.167,601.779z"/>
						<path d="M406.733,581.461c-2.51,0-5.022-1.032-6.797-2.807c-1.775-1.775-2.807-4.286-2.807-6.797
							c0-2.511,1.031-5.022,2.807-6.797c3.622-3.55,10.051-3.55,13.593,0c1.775,1.775,2.807,4.286,2.807,6.797
							c0,2.511-1.031,5.022-2.807,6.797C411.763,580.43,409.244,581.461,406.733,581.461z"/>
						<path d="M441.828,594.391c-2.511,0-4.949-1.032-6.797-2.807c-1.775-1.775-2.807-4.286-2.807-6.797s1.031-5.022,2.807-6.797
							c3.622-3.55,10.05-3.55,13.593,0c1.775,1.775,2.807,4.286,2.807,6.797s-1.031,5.022-2.807,6.797
							C446.857,593.359,444.339,594.391,441.828,594.391z"/>
						<path d="M515.712,605.474c-2.511,0-4.95-1.032-6.797-2.807c-1.775-1.847-2.807-4.286-2.807-6.797
							c0-2.511,1.031-4.95,2.807-6.797c3.622-3.55,9.979-3.622,13.593,0c1.775,1.775,2.807,4.286,2.807,6.797
							c0,2.511-1.031,5.022-2.807,6.797C520.741,604.442,518.223,605.474,515.712,605.474z"/>
						<path d="M480.617,618.403c-2.51,0-5.022-1.032-6.797-2.807c-1.775-1.775-2.807-4.286-2.807-6.797
							c0-2.511,1.031-5.022,2.807-6.797c3.622-3.55,10.05-3.55,13.593,0c1.776,1.775,2.807,4.286,2.807,6.797
							c0,2.511-1.031,5.022-2.807,6.797C485.646,617.372,483.128,618.403,480.617,618.403z"/>
						<path d="M471.382,590.697c-2.511,0-5.022-1.032-6.797-2.807c-1.775-1.775-2.807-4.286-2.807-6.797
							c0-2.511,1.031-5.022,2.807-6.797c3.622-3.55,10.05-3.55,13.593,0c1.776,1.775,2.807,4.286,2.807,6.797
							c0,2.511-1.031,5.022-2.807,6.797C476.411,589.665,473.892,590.697,471.382,590.697z"/>
						<path d="M149.987,598.085c-2.51,0-4.949-1.032-6.797-2.807c-1.775-1.775-2.807-4.286-2.807-6.797
							c0-2.511,1.031-5.022,2.807-6.797c3.622-3.55,10.051-3.55,13.593,0c1.775,1.775,2.807,4.286,2.807,6.797
							c0,2.511-1.031,5.022-2.807,6.797C155.016,597.053,152.497,598.085,149.987,598.085z"/>
						<path d="M214.635,337.644c-2.511,0-4.949-1.031-6.797-2.807c-1.775-1.775-2.807-4.286-2.807-6.797
							c0-2.511,1.031-5.022,2.807-6.797c3.55-3.55,10.05-3.55,13.593,0c1.775,1.775,2.807,4.286,2.807,6.797
							c0,2.511-1.031,5.022-2.807,6.797C219.664,336.613,217.146,337.644,214.635,337.644z"/>
						<path d="M162.916,442.929c-2.511,0-4.95-1.031-6.797-2.807c-1.775-1.775-2.807-4.286-2.807-6.797
							c0-2.511,1.031-4.949,2.807-6.797c3.55-3.55,10.051-3.55,13.593,0c1.775,1.847,2.807,4.286,2.807,6.797
							c0,2.511-1.031,5.022-2.807,6.797C167.946,441.898,165.427,442.929,162.916,442.929z"/>
						<path d="M185.082,450.317c-2.511,0-5.022-1.031-6.797-2.807c-1.775-1.775-2.807-4.286-2.807-6.797
							c0-2.511,1.031-5.022,2.807-6.797c3.622-3.55,10.05-3.55,13.593,0c1.775,1.775,2.807,4.286,2.807,6.797
							c0,2.51-1.031,5.022-2.807,6.797C190.111,449.286,187.592,450.317,185.082,450.317z"/>
						<path d="M205.4,461.4c-2.511,0-4.949-1.031-6.797-2.807c-1.775-1.775-2.807-4.286-2.807-6.797
							c0-2.511,1.032-5.022,2.807-6.797c3.622-3.55,10.05-3.55,13.593,0c1.775,1.775,2.807,4.286,2.807,6.797
							c0,2.51-1.031,5.022-2.807,6.797C210.429,460.369,207.91,461.4,205.4,461.4z"/>
						<path d="M166.611,411.528c-2.511,0-4.949-1.031-6.797-2.807c-1.775-1.775-2.807-4.286-2.807-6.797s1.031-5.022,2.807-6.797
							c3.622-3.55,10.051-3.55,13.593,0c1.775,1.775,2.807,4.286,2.807,6.797s-1.031,5.022-2.807,6.797
							C171.64,410.497,169.121,411.528,166.611,411.528z"/>
						<path d="M192.47,420.764c-2.511,0-4.95-1.031-6.797-2.807c-1.775-1.775-2.807-4.286-2.807-6.797s1.031-5.022,2.807-6.797
							c3.55-3.55,10.05-3.55,13.593,0c1.775,1.775,2.807,4.286,2.807,6.797s-1.031,5.022-2.807,6.797
							C197.499,419.732,194.981,420.764,192.47,420.764z"/>
						<path d="M216.482,428.152c-2.511,0-5.022-1.031-6.797-2.807c-1.775-1.775-2.807-4.286-2.807-6.797s1.031-4.949,2.807-6.797
							c3.622-3.55,10.05-3.55,13.593,0c1.775,1.847,2.807,4.286,2.807,6.797s-1.031,5.022-2.807,6.797
							C221.511,427.121,219.073,428.152,216.482,428.152z"/>
						<path d="M223.871,394.905c-2.51,0-4.949-1.032-6.796-2.807c-1.775-1.775-2.807-4.286-2.807-6.797
							c0-2.51,1.031-4.949,2.807-6.797c3.622-3.55,10.05-3.55,13.593,0c1.775,1.847,2.807,4.286,2.807,6.797
							c0,2.511-1.031,5.022-2.807,6.797C228.9,393.873,226.381,394.905,223.871,394.905z"/>
						<path d="M229.412,363.504c-2.51,0-4.949-1.031-6.797-2.807c-1.775-1.775-2.807-4.286-2.807-6.797
							c0-2.511,1.031-5.022,2.807-6.797c3.622-3.55,10.05-3.55,13.593,0c1.775,1.775,2.807,4.286,2.807,6.797
							c0,2.51-1.032,5.022-2.807,6.797C234.441,362.472,231.923,363.504,229.412,363.504z"/>
						<path d="M247.883,385.669c-2.511,0-5.022-1.031-6.797-2.807c-1.775-1.775-2.807-4.286-2.807-6.797
							c0-2.51,1.031-5.022,2.807-6.796c3.55-3.55,10.051-3.623,13.593,0c1.775,1.775,2.807,4.286,2.807,6.796
							c0,2.511-1.031,5.022-2.807,6.797C252.912,384.638,250.473,385.669,247.883,385.669z"/>
						<path d="M268.201,367.198c-2.511,0-5.022-1.031-6.797-2.807c-1.775-1.775-2.807-4.286-2.807-6.797
							c0-2.511,1.031-4.949,2.807-6.797c3.622-3.55,10.05-3.55,13.593,0c1.775,1.847,2.807,4.286,2.807,6.797
							c0,2.51-1.031,5.022-2.807,6.797C273.23,366.167,270.712,367.198,268.201,367.198z"/>
						<path d="M240.494,415.223c-2.511,0-4.949-1.031-6.797-2.807c-1.775-1.775-2.807-4.286-2.807-6.797
							c0-2.511,1.031-5.022,2.807-6.797c3.622-3.55,10.051-3.55,13.593,0c1.775,1.775,2.807,4.286,2.807,6.797
							c0,2.511-1.032,5.022-2.807,6.797C245.524,414.191,243.005,415.223,240.494,415.223z"/>
						<path d="M266.354,429.999c-2.511,0-4.949-1.031-6.797-2.807c-1.775-1.775-2.807-4.286-2.807-6.797s1.031-5.022,2.807-6.797
							c3.622-3.55,10.05-3.55,13.593,0c1.775,1.775,2.807,4.286,2.807,6.797s-1.031,5.022-2.807,6.797
							C271.383,428.968,268.865,429.999,266.354,429.999z"/>
						<path d="M266.354,459.553c-2.511,0-5.022-1.031-6.797-2.807c-1.775-1.775-2.807-4.286-2.807-6.797
							c0-2.511,1.031-5.022,2.807-6.797c3.622-3.55,10.05-3.55,13.593,0c1.775,1.775,2.807,4.286,2.807,6.797
							c0,2.51-1.031,5.022-2.807,6.797C271.383,458.522,268.865,459.553,266.354,459.553z"/>
						<path d="M236.8,446.623c-2.51,0-5.022-1.031-6.797-2.807c-1.775-1.775-2.807-4.286-2.807-6.797
							c0-2.511,1.031-5.022,2.807-6.797c3.622-3.55,10.051-3.55,13.593,0c1.775,1.847,2.807,4.286,2.807,6.797
							c0,2.51-1.031,5.022-2.807,6.797C241.83,445.592,239.391,446.623,236.8,446.623z"/>
						<path d="M292.213,437.388c-2.511,0-4.949-1.031-6.797-2.807c-1.775-1.775-2.807-4.286-2.807-6.797s1.031-5.022,2.807-6.797
							c3.622-3.55,10.05-3.55,13.593,0c1.775,1.775,2.807,4.286,2.807,6.797s-1.031,5.022-2.807,6.797
							C297.242,436.356,294.804,437.388,292.213,437.388z"/>
						<path d="M306.99,413.375c-2.51,0-5.022-1.031-6.797-2.807c-1.775-1.775-2.807-4.286-2.807-6.797s1.031-5.022,2.807-6.797
							c3.622-3.55,9.979-3.55,13.593,0c1.847,1.847,2.807,4.286,2.807,6.797s-1.031,5.022-2.807,6.797
							C312.019,412.344,309.501,413.375,306.99,413.375z"/>
						<path d="M297.755,383.822c-2.511,0-5.022-1.031-6.797-2.807c-1.776-1.775-2.807-4.286-2.807-6.797
							c0-2.511,1.031-5.022,2.807-6.797c3.622-3.55,10.05-3.55,13.593,0c1.776,1.775,2.807,4.286,2.807,6.797
							c0,2.511-1.031,5.022-2.807,6.797C302.784,382.79,300.265,383.822,297.755,383.822z"/>
						<path d="M297.755,354.268c-2.511,0-4.949-1.031-6.797-2.807c-1.776-1.775-2.807-4.286-2.807-6.797
							c0-2.511,1.031-5.022,2.807-6.797c3.622-3.55,10.05-3.55,13.593,0c1.776,1.775,2.807,4.286,2.807,6.797
							c0,2.511-1.031,5.022-2.807,6.797C302.784,353.237,300.265,354.268,297.755,354.268z"/>
						<path d="M273.742,341.339c-2.511,0-4.949-1.031-6.797-2.807c-1.775-1.775-2.807-4.286-2.807-6.797s1.031-5.022,2.807-6.797
							c3.622-3.55,10.05-3.55,13.593,0c1.775,1.775,2.807,4.286,2.807,6.797s-1.031,5.022-2.807,6.797
							C278.772,340.307,276.253,341.339,273.742,341.339z"/>
						<path d="M247.883,341.339c-2.511,0-5.022-1.031-6.797-2.807c-1.775-1.775-2.807-4.286-2.807-6.797s1.031-5.022,2.807-6.797
							c3.622-3.55,10.051-3.55,13.593,0c1.775,1.775,2.807,4.286,2.807,6.797s-1.031,5.022-2.807,6.797
							C252.912,340.307,250.473,341.339,247.883,341.339z"/>
						<path d="M295.908,315.479c-2.511,0-4.949-1.031-6.797-2.807c-1.776-1.775-2.807-4.286-2.807-6.797
							c0-2.511,1.031-5.022,2.807-6.797c3.622-3.55,10.05-3.55,13.593,0c1.775,1.847,2.807,4.286,2.807,6.797
							c0,2.511-1.031,5.022-2.807,6.797C300.937,314.448,298.418,315.479,295.908,315.479z"/>
						<path d="M318.073,335.797c-2.51,0-4.95-1.031-6.797-2.807c-1.776-1.775-2.807-4.286-2.807-6.797
							c0-2.511,1.031-4.95,2.807-6.797c3.622-3.55,10.05-3.55,13.593,0c1.775,1.775,2.807,4.286,2.807,6.797
							c0,2.511-1.031,5.022-2.807,6.797C323.102,334.766,320.583,335.797,318.073,335.797z"/>
						<path d="M340.238,339.491c-2.511,0-4.949-1.031-6.797-2.807c-1.775-1.775-2.807-4.286-2.807-6.797
							c0-2.511,1.031-5.022,2.807-6.797c3.622-3.55,10.051-3.55,13.593,0c1.775,1.775,2.807,4.286,2.807,6.797
							c0,2.511-1.031,5.022-2.807,6.797C345.267,338.46,342.748,339.491,340.238,339.491z"/>
						<path d="M321.767,369.045c-2.51,0-4.949-1.031-6.797-2.807c-1.775-1.775-2.807-4.286-2.807-6.796
							c0-2.511,1.031-4.95,2.807-6.797c3.622-3.55,10.051-3.55,13.593,0c1.775,1.775,2.807,4.286,2.807,6.797
							c0,2.51-1.031,5.022-2.807,6.796C326.796,368.014,324.277,369.045,321.767,369.045z"/>
						<path d="M329.155,396.752c-2.511,0-5.022-1.031-6.797-2.807c-1.775-1.775-2.807-4.286-2.807-6.797
							c0-2.51,1.031-5.022,2.807-6.797c3.622-3.55,10.051-3.55,13.593,0c1.775,1.775,2.807,4.286,2.807,6.797
							c0,2.511-1.031,5.022-2.807,6.797C334.184,395.72,331.746,396.752,329.155,396.752z"/>
						<path d="M306.99,413.375c-2.51,0-5.022-1.031-6.797-2.807c-1.775-1.775-2.807-4.286-2.807-6.797s1.031-5.022,2.807-6.797
							c3.622-3.55,9.979-3.55,13.593,0c1.847,1.847,2.807,4.286,2.807,6.797s-1.031,5.022-2.807,6.797
							C312.019,412.344,309.501,413.375,306.99,413.375z"/>
						<path d="M331.002,424.458c-2.511,0-4.949-1.031-6.797-2.807c-1.775-1.775-2.807-4.286-2.807-6.797
							c0-2.511,1.031-5.022,2.807-6.797c3.622-3.623,10.051-3.55,13.593,0c1.847,1.847,2.807,4.286,2.807,6.797
							c0,2.511-1.031,4.949-2.807,6.797C336.032,423.427,333.513,424.458,331.002,424.458z"/>
						<path d="M353.167,455.859c-2.511,0-5.022-1.031-6.797-2.807c-1.775-1.775-2.807-4.286-2.807-6.796
							c0-2.511,1.031-5.022,2.807-6.797c3.622-3.622,10.05-3.55,13.593,0c1.775,1.775,2.807,4.286,2.807,6.797
							c0,2.51-1.031,5.022-2.807,6.796C358.197,454.827,355.678,455.859,353.167,455.859z"/>
						<path d="M316.225,448.47c-2.51,0-4.949-1.031-6.797-2.807c-1.775-1.775-2.807-4.286-2.807-6.797
							c0-2.511,1.031-5.022,2.807-6.797c3.622-3.55,10.05-3.55,13.593,0c1.775,1.775,2.807,4.286,2.807,6.797
							c0,2.51-1.032,4.949-2.807,6.797C321.255,447.439,318.736,448.47,316.225,448.47z"/>
						<path d="M358.709,426.305c-2.511,0-4.95-1.031-6.797-2.807c-1.775-1.775-2.807-4.286-2.807-6.797
							c0-2.511,1.031-5.022,2.807-6.797c3.55-3.55,10.05-3.55,13.593,0c1.775,1.775,2.807,4.286,2.807,6.797
							c0,2.511-1.031,5.022-2.807,6.797C363.738,425.274,361.299,426.305,358.709,426.305z"/>
						<path d="M356.862,393.057c-2.511,0-5.022-1.031-6.797-2.807c-1.775-1.775-2.807-4.286-2.807-6.797
							c0-2.51,1.031-5.022,2.807-6.796c3.622-3.55,10.05-3.55,13.593,0c1.775,1.775,2.807,4.286,2.807,6.796
							c0,2.511-1.031,5.022-2.807,6.797C361.891,392.026,359.452,393.057,356.862,393.057z"/>
						<path d="M351.32,367.198c-2.511,0-4.95-1.031-6.797-2.807c-1.775-1.775-2.807-4.286-2.807-6.797
							c0-2.511,1.031-5.022,2.807-6.797c3.622-3.55,10.05-3.55,13.593,0c1.847,1.847,2.807,4.286,2.807,6.797
							c0,2.51-0.96,4.949-2.807,6.797C356.35,366.167,353.831,367.198,351.32,367.198z"/>
						<path d="M318.073,335.797c-2.51,0-4.95-1.031-6.797-2.807c-1.776-1.775-2.807-4.286-2.807-6.797
							c0-2.511,1.031-4.95,2.807-6.797c3.622-3.55,10.05-3.55,13.593,0c1.775,1.775,2.807,4.286,2.807,6.797
							c0,2.511-1.031,5.022-2.807,6.797C323.102,334.766,320.583,335.797,318.073,335.797z"/>
						<path d="M340.238,339.491c-2.511,0-4.949-1.031-6.797-2.807c-1.775-1.775-2.807-4.286-2.807-6.797
							c0-2.511,1.031-5.022,2.807-6.797c3.622-3.55,10.051-3.55,13.593,0c1.775,1.775,2.807,4.286,2.807,6.797
							c0,2.511-1.031,5.022-2.807,6.797C345.267,338.46,342.748,339.491,340.238,339.491z"/>
						<path d="M323.614,311.785c-2.51,0-4.949-1.031-6.797-2.807c-1.775-1.775-2.807-4.286-2.807-6.797
							c0-2.51,1.031-5.022,2.807-6.797c3.55-3.55,10.051-3.55,13.593,0c1.775,1.775,2.807,4.286,2.807,6.797
							c0,2.511-1.031,5.022-2.807,6.797C328.643,310.754,326.124,311.785,323.614,311.785z"/>
						<path d="M319.92,282.232c-2.51,0-5.022-1.031-6.797-2.807c-1.775-1.775-2.807-4.286-2.807-6.796
							c0-2.511,1.031-5.022,2.807-6.797c3.622-3.55,10.051-3.55,13.593,0c1.775,1.775,2.807,4.286,2.807,6.797
							c0,2.51-1.031,5.022-2.807,6.796C324.949,281.2,322.51,282.232,319.92,282.232z"/>
						<path d="M347.626,284.079c-2.511,0-4.949-1.031-6.797-2.807c-1.775-1.775-2.807-4.286-2.807-6.797
							c0-2.511,1.031-5.022,2.807-6.797c3.622-3.55,10.05-3.55,13.593,0c1.775,1.775,2.807,4.286,2.807,6.797
							c0,2.51-1.031,5.022-2.807,6.797C352.655,283.047,350.137,284.079,347.626,284.079z"/>
						<path d="M353.167,317.326c-2.511,0-4.949-1.031-6.797-2.807c-1.775-1.775-2.807-4.286-2.807-6.797s1.031-5.022,2.807-6.797
							c3.622-3.622,10.05-3.55,13.593,0c1.775,1.775,2.807,4.286,2.807,6.797s-1.031,5.022-2.807,6.797
							C358.197,316.295,355.678,317.326,353.167,317.326z"/>
						<path d="M369.791,341.339c-2.511,0-5.022-1.031-6.797-2.807c-1.775-1.775-2.807-4.286-2.807-6.797s1.031-5.022,2.807-6.797
							c3.55-3.55,10.05-3.55,13.593,0c1.775,1.775,2.807,4.286,2.807,6.797s-1.031,5.022-2.807,6.797
							C374.821,340.307,372.302,341.339,369.791,341.339z"/>
						<path d="M391.956,359.81c-2.51,0-5.022-1.031-6.796-2.807c-1.776-1.775-2.807-4.286-2.807-6.797
							c0-2.511,1.031-5.022,2.807-6.797c3.55-3.55,10.05-3.55,13.593,0c1.776,1.775,2.807,4.286,2.807,6.797
							c0,2.51-1.031,5.022-2.807,6.797C396.986,358.778,394.467,359.81,391.956,359.81z"/>
						<path d="M388.262,387.516c-2.511,0-5.022-1.031-6.797-2.807c-1.776-1.775-2.807-4.286-2.807-6.797
							c0-2.51,1.031-5.022,2.807-6.797c3.622-3.623,10.05-3.55,13.593,0c1.775,1.775,2.807,4.286,2.807,6.797
							c0,2.511-1.031,5.022-2.807,6.797C393.292,386.485,390.773,387.516,388.262,387.516z"/>
						<path d="M382.721,415.223c-2.511,0-4.95-1.031-6.797-2.807c-1.776-1.775-2.807-4.286-2.807-6.797
							c0-2.511,1.031-5.022,2.807-6.797c3.55-3.55,10.05-3.622,13.593,0c1.776,1.775,2.807,4.286,2.807,6.797
							c0,2.511-1.031,5.022-2.807,6.797C387.75,414.191,385.232,415.223,382.721,415.223z"/>
						<path d="M397.498,441.082c-2.51,0-4.949-1.031-6.797-2.807c-1.776-1.775-2.807-4.286-2.807-6.797
							c0-2.511,1.031-5.022,2.807-6.797c3.55-3.55,10.05-3.622,13.593,0c1.775,1.775,2.807,4.286,2.807,6.797
							c0,2.511-1.031,5.022-2.807,6.797C402.527,440.051,400.008,441.082,397.498,441.082z"/>
						<path d="M419.663,418.917c-2.511,0-5.022-1.031-6.797-2.807c-1.775-1.775-2.807-4.286-2.807-6.797
							c0-2.511,1.031-5.022,2.807-6.797c3.622-3.55,10.051-3.55,13.593,0c1.775,1.775,2.807,4.286,2.807,6.797
							c0,2.511-1.031,5.022-2.807,6.797C424.692,417.885,422.174,418.917,419.663,418.917z"/>
						<path d="M419.663,452.164c-2.511,0-4.949-1.031-6.797-2.807c-1.775-1.775-2.807-4.286-2.807-6.797
							c0-2.511,1.031-5.022,2.807-6.797c3.622-3.55,10.051-3.55,13.593,0c1.775,1.775,2.807,4.286,2.807,6.797
							c0,2.51-1.031,5.022-2.807,6.797C424.692,451.133,422.174,452.164,419.663,452.164z"/>
						<path d="M417.816,383.822c-2.511,0-5.022-1.031-6.797-2.807c-1.775-1.775-2.807-4.286-2.807-6.797
							c0-2.511,1.031-5.022,2.807-6.797c3.622-3.55,10.051-3.55,13.593,0c1.775,1.775,2.807,4.286,2.807,6.797
							c0,2.511-1.031,5.022-2.807,6.797C422.845,382.79,420.326,383.822,417.816,383.822z"/>
						<path d="M427.051,361.657c-2.511,0-4.949-1.031-6.797-2.807c-1.775-1.775-2.807-4.286-2.807-6.797
							c0-2.511,1.031-5.022,2.807-6.797c3.55-3.55,9.979-3.55,13.593,0c1.775,1.775,2.807,4.286,2.807,6.797
							c0,2.51-1.031,5.022-2.807,6.797C432.081,360.625,429.642,361.657,427.051,361.657z"/>
						<path d="M403.039,332.103c-2.51,0-5.022-1.031-6.797-2.807c-1.775-1.775-2.807-4.286-2.807-6.797
							c0-2.511,1.031-5.022,2.807-6.797c3.622-3.55,10.05-3.55,13.593,0c1.775,1.775,2.807,4.286,2.807,6.797
							c0,2.511-1.031,5.022-2.807,6.797C407.989,331.072,405.629,332.103,403.039,332.103z"/>
						<path d="M390.109,313.632c-2.51,0-4.949-1.031-6.796-2.807c-1.776-1.775-2.807-4.286-2.807-6.797
							c0-2.51,1.031-4.949,2.807-6.797c3.622-3.622,10.05-3.55,13.593,0c1.775,1.847,2.807,4.286,2.807,6.797
							c0,2.511-1.031,5.022-2.807,6.797C395.139,312.601,392.62,313.632,390.109,313.632z"/>
						<path d="M375.333,297.008c-2.511,0-4.95-1.031-6.797-2.807c-1.775-1.775-2.807-4.286-2.807-6.797
							c0-2.51,1.031-5.022,2.807-6.796c3.622-3.623,10.05-3.55,13.593,0c1.776,1.775,2.807,4.286,2.807,6.796
							c0,2.511-1.031,5.022-2.807,6.797C380.362,295.977,377.923,297.008,375.333,297.008z"/>
						<path d="M391.956,252.678c-2.51,0-4.949-1.031-6.796-2.807c-1.776-1.775-2.807-4.286-2.807-6.797
							c0-2.511,1.031-5.022,2.807-6.797c3.55-3.55,10.05-3.55,13.593,0c1.776,1.775,2.807,4.286,2.807,6.797
							c0,2.511-1.031,5.022-2.807,6.797C396.986,251.646,394.467,252.678,391.956,252.678z"/>
						<path d="M432.593,328.409c-2.511,0-4.949-1.031-6.797-2.807c-1.775-1.775-2.807-4.286-2.807-6.797
							c0-2.511,1.031-5.022,2.807-6.797c3.55-3.55,10.05-3.55,13.593,0c1.775,1.775,2.807,4.286,2.807,6.797
							c0,2.511-1.031,5.022-2.807,6.797C437.622,327.378,435.103,328.409,432.593,328.409z"/>
						<path d="M456.605,346.88c-2.511,0-4.95-1.031-6.797-2.807c-1.775-1.847-2.807-4.286-2.807-6.797
							c0-2.511,1.031-5.022,2.807-6.797c3.55-3.55,9.979-3.55,13.593,0c1.775,1.775,2.807,4.286,2.807,6.797
							c0,2.511-1.031,5.022-2.807,6.797C461.634,345.849,459.115,346.88,456.605,346.88z"/>
						<path d="M454.758,376.434c-2.511,0-4.949-1.031-6.797-2.807c-1.775-1.847-2.807-4.286-2.807-6.796
							c0-2.511,1.031-4.949,2.807-6.797c3.622-3.55,10.05-3.55,13.593,0c1.775,1.775,2.807,4.286,2.807,6.797
							c0,2.51-1.031,5.022-2.807,6.796C459.787,375.402,457.268,376.434,454.758,376.434z"/>
						<path d="M447.369,405.987c-2.511,0-4.949-1.031-6.797-2.807c-1.775-1.775-2.807-4.286-2.807-6.797
							c0-2.511,1.031-4.949,2.807-6.797c3.622-3.622,10.05-3.55,13.593,0c1.775,1.847,2.807,4.286,2.807,6.797
							c0,2.511-1.031,5.022-2.807,6.797C452.399,404.956,449.88,405.987,447.369,405.987z"/>
						<path d="M475.076,400.446c-2.511,0-5.022-1.031-6.797-2.807c-1.776-1.775-2.807-4.286-2.807-6.797
							c0-2.511,1.031-5.022,2.807-6.797c3.622-3.55,10.05-3.55,13.593,0c1.776,1.775,2.807,4.286,2.807,6.797
							c0,2.511-1.031,5.022-2.807,6.797C480.105,399.414,477.586,400.446,475.076,400.446z"/>
						<path d="M473.229,433.694c-2.511,0-5.022-1.031-6.797-2.807c-1.775-1.775-2.807-4.286-2.807-6.797
							c0-2.511,1.031-5.022,2.807-6.797c3.622-3.55,10.05-3.55,13.593,0c1.775,1.775,2.807,4.286,2.807,6.797
							c0,2.511-1.031,5.022-2.807,6.797C478.258,432.662,475.739,433.694,473.229,433.694z"/>
						<path d="M493.547,455.859c-2.51,0-4.949-1.031-6.797-2.807c-1.775-1.775-2.807-4.286-2.807-6.796
							c0-2.511,1.031-5.022,2.807-6.797c3.622-3.55,9.979-3.622,13.593,0c1.775,1.775,2.807,4.286,2.807,6.797
							c0,2.51-1.031,5.022-2.807,6.796C498.576,454.827,496.137,455.859,493.547,455.859z"/>
						<path d="M499.088,420.764c-2.511,0-4.949-1.031-6.797-2.807c-1.775-1.775-2.807-4.286-2.807-6.797s1.031-5.022,2.807-6.797
							c3.622-3.55,10.051-3.55,13.593,0c1.775,1.775,2.807,4.286,2.807,6.797s-1.031,5.022-2.807,6.797
							C504.117,419.732,501.599,420.764,499.088,420.764z"/>
						<path d="M499.088,393.057c-2.511,0-5.022-1.031-6.797-2.807c-1.775-1.775-2.807-4.286-2.807-6.797
							c0-2.51,1.031-5.022,2.807-6.796c3.622-3.55,10.051-3.55,13.593,0c1.775,1.775,2.807,4.286,2.807,6.796
							c0,2.511-1.031,5.022-2.807,6.797C504.117,392.026,501.679,393.057,499.088,393.057z"/>
						<path d="M491.7,363.504c-2.51,0-4.95-1.031-6.797-2.807c-1.776-1.775-2.807-4.286-2.807-6.797
							c0-2.511,1.031-5.022,2.807-6.797c3.55-3.55,10.05-3.55,13.593,0c1.775,1.775,2.807,4.286,2.807,6.797
							c0,2.51-1.031,5.022-2.807,6.797C496.729,362.472,494.21,363.504,491.7,363.504z"/>
						<path d="M275.589,400.446c-2.511,0-4.949-1.031-6.797-2.807c-1.775-1.775-2.807-4.286-2.807-6.797
							c0-2.511,1.031-5.022,2.807-6.797c3.622-3.55,10.05-3.622,13.593,0c1.775,1.775,2.807,4.286,2.807,6.797
							c0,2.511-1.031,5.022-2.807,6.797C280.619,399.414,278.1,400.446,275.589,400.446z"/>
						<path d="M462.146,322.868c-2.511,0-4.95-1.031-6.797-2.807c-1.775-1.775-2.807-4.286-2.807-6.797
							c0-2.511,1.031-5.022,2.807-6.797c3.622-3.55,9.979-3.55,13.593,0c1.776,1.775,2.807,4.286,2.807,6.797
							c0,2.511-1.031,5.022-2.807,6.797C467.175,321.836,464.657,322.868,462.146,322.868z"/>
						<path d="M488.006,337.644c-2.51,0-5.022-1.031-6.797-2.807c-1.775-1.775-2.807-4.286-2.807-6.797
							c0-2.511,1.031-5.022,2.807-6.797c3.55-3.55,9.979-3.622,13.593,0c1.775,1.775,2.807,4.286,2.807,6.797
							c0,2.511-1.032,5.022-2.807,6.797C493.035,336.613,490.596,337.644,488.006,337.644z"/>
						<path d="M499.088,420.764c-2.511,0-4.949-1.031-6.797-2.807c-1.775-1.775-2.807-4.286-2.807-6.797s1.031-5.022,2.807-6.797
							c3.622-3.55,10.051-3.55,13.593,0c1.775,1.775,2.807,4.286,2.807,6.797s-1.031,5.022-2.807,6.797
							C504.117,419.732,501.599,420.764,499.088,420.764z"/>
						<path d="M443.675,437.388c-2.511,0-4.949-1.031-6.797-2.807c-1.775-1.775-2.807-4.286-2.807-6.797s1.031-4.949,2.807-6.797
							c3.622-3.55,10.05-3.55,13.593,0c1.775,1.847,2.807,4.286,2.807,6.797s-1.031,4.949-2.807,6.797
							C448.705,436.356,446.186,437.388,443.675,437.388z"/>
						<path d="M155.528,466.941c-2.511,0-4.95-1.031-6.797-2.807c-1.775-1.775-2.807-4.286-2.807-6.797
							c0-2.51,1.031-5.022,2.807-6.797c3.622-3.55,10.05-3.55,13.593,0c1.775,1.775,2.807,4.286,2.807,6.797
							c0,2.511-1.031,5.022-2.807,6.797C160.557,465.91,158.039,466.941,155.528,466.941z"/>
						<path d="M148.14,496.495c-2.511,0-4.95-1.031-6.797-2.807c-1.775-1.775-2.807-4.286-2.807-6.797
							c0-2.511,1.031-5.022,2.807-6.797c3.622-3.55,10.05-3.55,13.593,0c1.775,1.775,2.807,4.286,2.807,6.797
							c0,2.511-1.032,5.022-2.807,6.797C153.169,495.463,150.65,496.495,148.14,496.495z"/>
						<path d="M173.999,511.272c-2.511,0-4.949-1.031-6.797-2.807c-1.775-1.775-2.807-4.286-2.807-6.797
							c0-2.511,1.031-5.022,2.807-6.797c3.622-3.55,10.05-3.55,13.593,0c1.775,1.775,2.807,4.286,2.807,6.797
							c0,2.511-1.031,5.022-2.807,6.797C179.028,510.24,176.51,511.272,173.999,511.272z"/>
						<path d="M173.999,540.825c-2.511,0-4.949-1.031-6.797-2.807c-1.775-1.775-2.807-4.286-2.807-6.797
							c0-2.511,1.031-5.022,2.807-6.797c3.622-3.55,10.05-3.55,13.593,0c1.775,1.775,2.807,4.286,2.807,6.797
							c0,2.51-1.031,5.022-2.807,6.797C179.028,539.794,176.51,540.825,173.999,540.825z"/>
						<path d="M199.858,518.66c-2.511,0-5.022-1.031-6.797-2.807c-1.775-1.775-2.807-4.286-2.807-6.797
							c0-2.511,1.031-5.022,2.807-6.797c3.55-3.55,10.05-3.55,13.593,0c1.775,1.775,2.807,4.286,2.807,6.797
							c0,2.511-1.031,5.022-2.807,6.797C204.888,517.629,202.449,518.66,199.858,518.66z"/>
						<path d="M201.705,540.825c-2.511,0-5.022-1.031-6.797-2.807c-1.775-1.775-2.807-4.286-2.807-6.797
							c0-2.511,1.031-4.95,2.807-6.797c3.622-3.55,10.05-3.55,13.593,0c1.775,1.847,2.807,4.286,2.807,6.797
							c0,2.51-1.031,5.022-2.807,6.797C206.735,539.794,204.296,540.825,201.705,540.825z"/>
						<path d="M214.635,494.648c-2.511,0-4.949-1.031-6.797-2.807c-1.775-1.775-2.807-4.286-2.807-6.797
							c0-2.511,1.031-5.022,2.807-6.797c3.55-3.55,10.05-3.622,13.593,0c1.775,1.775,2.807,4.286,2.807,6.797
							c0,2.511-1.031,5.022-2.807,6.797C219.664,493.616,217.146,494.648,214.635,494.648z"/>
						<path d="M236.8,478.024c-2.51,0-4.949-1.031-6.797-2.807c-1.775-1.775-2.807-4.286-2.807-6.797
							c0-2.51,1.031-5.022,2.807-6.797c3.622-3.55,10.051-3.55,13.593,0c1.775,1.775,2.807,4.286,2.807,6.797
							c0,2.511-1.031,5.022-2.807,6.797C241.83,476.992,239.311,478.024,236.8,478.024z"/>
						<path d="M214.635,494.648c-2.511,0-4.949-1.031-6.797-2.807c-1.775-1.775-2.807-4.286-2.807-6.797
							c0-2.511,1.031-5.022,2.807-6.797c3.55-3.55,10.05-3.622,13.593,0c1.775,1.775,2.807,4.286,2.807,6.797
							c0,2.511-1.031,5.022-2.807,6.797C219.664,493.616,217.146,494.648,214.635,494.648z"/>
						<path d="M238.647,505.73c-2.511,0-4.95-1.031-6.797-2.807c-1.775-1.775-2.807-4.286-2.807-6.797
							c0-2.511,1.031-5.022,2.807-6.797c3.622-3.55,10.05-3.55,13.593,0c1.775,1.775,2.807,4.286,2.807,6.797
							c0,2.511-1.032,5.022-2.807,6.797C243.677,504.699,241.158,505.73,238.647,505.73z"/>
						<path d="M260.813,537.131c-2.511,0-4.949-1.031-6.797-2.807c-1.775-1.775-2.807-4.286-2.807-6.797
							c0-2.511,1.031-5.022,2.807-6.797c3.622-3.55,9.979-3.55,13.593,0c1.847,1.847,2.807,4.286,2.807,6.797
							c0,2.51-1.031,5.022-2.807,6.797C265.842,536.1,263.323,537.131,260.813,537.131z"/>
						<path d="M223.871,529.743c-2.51,0-4.949-1.031-6.796-2.807c-1.775-1.775-2.807-4.286-2.807-6.797
							c0-2.511,1.031-5.022,2.807-6.797c3.622-3.55,10.05-3.55,13.593,0c1.775,1.775,2.807,4.286,2.807,6.797
							c0,2.511-1.031,5.022-2.807,6.797C228.9,528.711,226.461,529.743,223.871,529.743z"/>
						<path d="M266.354,514.966c-2.511,0-5.022-1.031-6.797-2.807c-1.775-1.775-2.807-4.286-2.807-6.797s1.031-5.022,2.807-6.797
							c3.622-3.55,10.05-3.55,13.593,0c1.775,1.775,2.807,4.286,2.807,6.797s-1.031,5.022-2.807,6.797
							C271.383,513.934,268.944,514.966,266.354,514.966z"/>
						<path d="M264.507,481.718c-2.511,0-4.95-1.031-6.797-2.807c-1.775-1.775-2.807-4.286-2.807-6.797
							c0-2.51,1.031-5.022,2.807-6.797c3.622-3.55,10.05-3.55,13.593,0c1.775,1.775,2.807,4.286,2.807,6.797
							c0,2.511-1.031,5.022-2.807,6.797C269.536,480.687,267.017,481.718,264.507,481.718z"/>
						<path d="M295.908,468.788c-2.511,0-4.949-1.031-6.797-2.807c-1.776-1.775-2.807-4.286-2.807-6.797
							c0-2.51,1.031-5.022,2.807-6.797c3.55-3.55,10.05-3.55,13.593,0c1.775,1.847,2.807,4.286,2.807,6.797
							c0,2.511-1.031,4.949-2.807,6.797C300.937,467.757,298.498,468.788,295.908,468.788z"/>
						<path d="M290.366,490.954c-2.511,0-5.022-1.032-6.797-2.807c-1.775-1.775-2.807-4.286-2.807-6.797s1.031-5.022,2.807-6.797
							c3.622-3.55,10.05-3.55,13.593,0c1.776,1.775,2.807,4.286,2.807,6.797s-1.031,5.022-2.807,6.797
							C295.395,489.922,292.956,490.954,290.366,490.954z"/>
						<path d="M299.602,518.66c-2.511,0-5.022-1.031-6.797-2.807c-1.775-1.775-2.807-4.286-2.807-6.797
							c0-2.511,1.031-4.95,2.807-6.797c3.622-3.622,10.05-3.55,13.593,0c1.776,1.847,2.807,4.286,2.807,6.797
							c0,2.511-1.031,5.022-2.807,6.797C304.631,517.629,302.112,518.66,299.602,518.66z"/>
						<path d="M327.308,500.189c-2.511,0-4.95-1.031-6.797-2.807c-1.775-1.775-2.807-4.286-2.807-6.797s1.031-5.022,2.807-6.797
							c3.622-3.622,10.051-3.55,13.593,0c1.775,1.775,2.807,4.286,2.807,6.797s-1.031,5.022-2.807,6.797
							C332.337,499.158,329.819,500.189,327.308,500.189z"/>
						<path d="M325.461,540.825c-2.511,0-5.022-1.031-6.797-2.807c-1.775-1.775-2.807-4.286-2.807-6.797
							c0-2.511,1.031-5.022,2.807-6.797c3.55-3.55,9.979-3.55,13.593,0c1.775,1.775,2.807,4.286,2.807,6.797
							c0,2.51-1.031,5.022-2.807,6.797C330.49,539.794,327.972,540.825,325.461,540.825z"/>
						<path d="M329.155,474.33c-2.511,0-4.949-1.031-6.797-2.807c-1.775-1.775-2.807-4.286-2.807-6.797
							c0-2.51,1.031-5.022,2.807-6.797c3.622-3.55,10.051-3.55,13.593,0c1.775,1.775,2.807,4.286,2.807,6.797
							c0,2.511-1.031,5.022-2.807,6.797C334.184,473.298,331.666,474.33,329.155,474.33z"/>
						<path d="M355.015,487.259c-2.511,0-4.949-1.031-6.797-2.807c-1.775-1.775-2.807-4.286-2.807-6.797
							c0-2.511,1.031-5.022,2.807-6.797c3.55-3.55,10.05-3.623,13.593,0c1.775,1.775,2.807,4.286,2.807,6.797
							c0,2.511-1.031,5.022-2.807,6.797C360.044,486.228,357.525,487.259,355.015,487.259z"/>
						<path d="M183.234,481.718c-2.511,0-5.022-1.031-6.797-2.807c-1.775-1.775-2.807-4.286-2.807-6.797
							c0-2.51,1.031-4.949,2.807-6.797c3.622-3.55,10.05-3.55,13.593,0c1.775,1.847,2.807,4.286,2.807,6.797
							c0,2.511-1.031,5.022-2.807,6.797C188.264,480.687,185.745,481.718,183.234,481.718z"/>
						<path d="M347.626,516.813c-2.511,0-4.949-1.031-6.797-2.807c-1.775-1.775-2.807-4.286-2.807-6.797s1.031-5.022,2.807-6.797
							c3.622-3.622,10.05-3.55,13.593,0c1.847,1.775,2.807,4.286,2.807,6.797s-1.031,5.022-2.807,6.797
							C352.655,515.781,350.137,516.813,347.626,516.813z"/>
						<path d="M159.222,585.156c-2.511,0-4.95-1.032-6.797-2.807c-1.775-1.775-2.807-4.286-2.807-6.797
							c0-2.511,1.031-4.95,2.807-6.797c3.55-3.55,10.05-3.55,13.593,0c1.775,1.847,2.807,4.286,2.807,6.797
							c0,2.511-1.031,5.022-2.807,6.797C164.251,584.124,161.733,585.156,159.222,585.156z"/>
						<path d="M149.987,555.602c-2.51,0-4.949-1.032-6.797-2.807c-1.775-1.775-2.807-4.286-2.807-6.797
							c0-2.51,1.031-5.022,2.807-6.796c3.622-3.55,10.051-3.55,13.593,0c1.775,1.775,2.807,4.286,2.807,6.796
							c0,2.511-1.031,5.022-2.807,6.797C155.016,554.57,152.497,555.602,149.987,555.602z"/>
						<path d="M181.387,568.532c-2.511,0-5.022-1.032-6.797-2.807c-1.775-1.775-2.807-4.286-2.807-6.797
							c0-2.511,1.031-5.022,2.807-6.797c3.622-3.55,10.05-3.55,13.593,0c1.775,1.847,2.807,4.286,2.807,6.797
							c0,2.511-1.031,5.022-2.807,6.797C186.417,567.5,183.978,568.532,181.387,568.532z"/>
						<path d="M159.222,585.156c-2.511,0-4.95-1.032-6.797-2.807c-1.775-1.775-2.807-4.286-2.807-6.797
							c0-2.511,1.031-4.95,2.807-6.797c3.55-3.55,10.05-3.55,13.593,0c1.775,1.847,2.807,4.286,2.807,6.797
							c0,2.511-1.031,5.022-2.807,6.797C164.251,584.124,161.733,585.156,159.222,585.156z"/>
						<path d="M209.094,564.838c-2.511,0-4.949-1.032-6.797-2.807c-1.776-1.775-2.807-4.286-2.807-6.797
							c0-2.511,1.031-4.949,2.807-6.797c3.622-3.623,10.05-3.55,13.593,0c1.775,1.775,2.807,4.286,2.807,6.797
							c0,2.511-1.031,5.022-2.807,6.797C214.123,563.806,211.604,564.838,209.094,564.838z"/>
						<path d="M240.494,559.296c-2.511,0-4.949-1.032-6.797-2.807c-1.775-1.775-2.807-4.286-2.807-6.797
							c0-2.51,1.031-4.949,2.807-6.797c3.622-3.623,10.051-3.55,13.593,0c1.775,1.847,2.807,4.286,2.807,6.797
							c0,2.511-1.032,5.022-2.807,6.797C245.524,558.264,243.005,559.296,240.494,559.296z"/>
						<path d="M234.953,581.461c-2.511,0-4.95-1.032-6.797-2.807c-1.775-1.775-2.807-4.286-2.807-6.797
							c0-2.511,1.031-5.022,2.807-6.797c3.622-3.55,9.979-3.622,13.593,0c1.775,1.847,2.807,4.286,2.807,6.797
							c0,2.511-1.031,5.022-2.807,6.797C239.982,580.43,237.544,581.461,234.953,581.461z"/>
						<path d="M271.895,590.697c-2.511,0-4.95-1.032-6.797-2.807c-1.775-1.775-2.807-4.286-2.807-6.797
							c0-2.511,1.031-5.022,2.807-6.797c3.622-3.55,10.05-3.55,13.593,0c1.775,1.775,2.807,4.286,2.807,6.797
							c0,2.511-1.031,5.022-2.807,6.797C276.924,589.665,274.406,590.697,271.895,590.697z"/>
						<path d="M273.742,564.838c-2.511,0-4.949-1.032-6.797-2.807c-1.775-1.775-2.807-4.286-2.807-6.797
							c0-2.511,1.031-5.022,2.807-6.797c3.622-3.55,9.979-3.623,13.593,0c1.775,1.775,2.807,4.286,2.807,6.797
							c0,2.511-1.031,5.022-2.807,6.797C278.772,563.806,276.253,564.838,273.742,564.838z"/>
						<path d="M303.296,583.308c-2.511,0-4.949-1.032-6.797-2.807c-1.776-1.775-2.807-4.286-2.807-6.797
							c0-2.511,1.031-5.022,2.807-6.797c3.55-3.55,10.05-3.622,13.593,0c1.775,1.775,2.807,4.286,2.807,6.797
							c0,2.511-1.031,5.022-2.807,6.797C308.325,582.277,305.806,583.308,303.296,583.308z"/>
						<path d="M327.308,572.226c-2.511,0-4.95-1.032-6.797-2.807c-1.775-1.775-2.807-4.286-2.807-6.797
							c0-2.511,1.031-5.022,2.807-6.797c3.622-3.622,10.051-3.55,13.593,0c1.775,1.775,2.807,4.286,2.807,6.797
							c0,2.511-1.031,5.022-2.807,6.797C332.337,571.194,329.819,572.226,327.308,572.226z"/>
						<path d="M380.874,461.4c-2.511,0-4.949-1.031-6.797-2.807c-1.776-1.775-2.807-4.286-2.807-6.797
							c0-2.511,1.031-5.022,2.807-6.797c3.622-3.55,10.05-3.55,13.593,0c1.776,1.775,2.807,4.286,2.807,6.797
							c0,2.51-1.031,5.022-2.807,6.797C385.903,460.369,383.384,461.4,380.874,461.4z"/>
						<path d="M399.345,507.577c-2.51,0-4.949-1.031-6.796-2.807c-1.776-1.775-2.807-4.286-2.807-6.797s1.031-5.022,2.807-6.797
							c3.622-3.55,10.05-3.55,13.593,0c1.776,1.775,2.807,4.286,2.807,6.797s-1.031,5.022-2.807,6.797
							C404.374,506.546,401.855,507.577,399.345,507.577z"/>
						<path d="M403.039,478.024c-2.51,0-5.022-1.031-6.797-2.807c-1.775-1.775-2.807-4.286-2.807-6.797
							c0-2.51,1.031-5.022,2.807-6.797c3.622-3.55,10.05-3.55,13.593,0c1.775,1.775,2.807,4.286,2.807,6.797
							c0,2.511-1.031,5.022-2.807,6.797C408.068,476.992,405.55,478.024,403.039,478.024z"/>
						<path d="M438.134,470.635c-2.511,0-5.022-1.031-6.797-2.807c-1.775-1.775-2.807-4.286-2.807-6.797
							c0-2.51,1.031-4.949,2.807-6.797c3.622-3.55,10.05-3.55,13.593,0c1.775,1.775,2.807,4.286,2.807,6.797
							c0,2.511-1.031,5.022-2.807,6.797C443.163,469.604,440.724,470.635,438.134,470.635z"/>
						<path d="M443.675,505.73c-2.511,0-5.022-1.031-6.797-2.807c-1.775-1.775-2.807-4.286-2.807-6.797
							c0-2.511,1.031-5.022,2.807-6.797c3.622-3.55,10.05-3.55,13.593,0c1.775,1.775,2.807,4.286,2.807,6.797
							c0,2.511-1.031,5.022-2.807,6.797C448.705,504.699,446.186,505.73,443.675,505.73z"/>
						<path d="M421.51,526.048c-2.511,0-4.95-1.031-6.797-2.807c-1.775-1.775-2.807-4.286-2.807-6.797s1.031-5.022,2.807-6.797
							c3.622-3.55,10.051-3.55,13.593,0c1.775,1.775,2.807,4.286,2.807,6.797s-1.031,5.022-2.807,6.797
							C426.539,525.017,424.021,526.048,421.51,526.048z"/>
						<path d="M397.498,538.978c-2.51,0-4.949-1.031-6.797-2.807c-1.776-1.775-2.807-4.286-2.807-6.797
							c0-2.511,1.031-5.022,2.807-6.797c3.55-3.55,10.05-3.622,13.593,0c1.775,1.775,2.807,4.286,2.807,6.797
							c0,2.51-1.031,5.022-2.807,6.797C402.527,537.947,400.008,538.978,397.498,538.978z"/>
						<path d="M399.345,507.577c-2.51,0-4.949-1.031-6.796-2.807c-1.776-1.775-2.807-4.286-2.807-6.797s1.031-5.022,2.807-6.797
							c3.622-3.55,10.05-3.55,13.593,0c1.776,1.775,2.807,4.286,2.807,6.797s-1.031,5.022-2.807,6.797
							C404.374,506.546,401.855,507.577,399.345,507.577z"/>
						<path d="M382.721,562.99c-2.511,0-4.95-1.032-6.797-2.807c-1.776-1.775-2.807-4.286-2.807-6.797
							c0-2.51,1.031-5.022,2.807-6.797c3.55-3.55,10.05-3.55,13.593,0c1.776,1.775,2.807,4.286,2.807,6.797
							c0,2.511-1.031,5.022-2.807,6.797C387.75,561.959,385.232,562.99,382.721,562.99z"/>
						<path d="M417.816,561.143c-2.511,0-4.949-1.032-6.797-2.807c-1.775-1.775-2.807-4.286-2.807-6.797
							c0-2.51,1.031-5.022,2.807-6.797c3.622-3.55,10.051-3.55,13.593,0c1.775,1.775,2.807,4.286,2.807,6.797
							c0,2.511-1.031,5.022-2.807,6.797C422.845,560.112,420.326,561.143,417.816,561.143z"/>
						<path d="M443.675,570.379c-2.511,0-4.949-1.032-6.797-2.807c-1.775-1.775-2.807-4.286-2.807-6.797
							c0-2.511,1.031-5.022,2.807-6.797c3.622-3.622,10.05-3.55,13.593,0c1.775,1.847,2.807,4.286,2.807,6.797
							c0,2.511-1.031,4.95-2.807,6.797C448.705,569.347,446.186,570.379,443.675,570.379z"/>
						<path d="M445.522,537.131c-2.511,0-4.95-1.031-6.797-2.807c-1.775-1.775-2.807-4.286-2.807-6.797
							c0-2.511,1.031-5.022,2.807-6.797c3.622-3.55,10.05-3.55,13.593,0c1.775,1.775,2.807,4.286,2.807,6.797
							c0,2.51-1.031,5.022-2.807,6.797C450.552,536.1,448.033,537.131,445.522,537.131z"/>
						<path d="M364.25,542.672c-2.511,0-5.022-1.031-6.797-2.807c-1.775-1.775-2.807-4.286-2.807-6.797
							c0-2.511,1.032-5.022,2.807-6.797c3.622-3.622,10.05-3.55,13.593,0c1.775,1.775,2.807,4.286,2.807,6.797
							c0,2.51-1.031,5.022-2.807,6.797C369.279,541.641,366.84,542.672,364.25,542.672z"/>
						<path d="M353.167,564.838c-2.511,0-5.022-1.032-6.797-2.807c-1.775-1.775-2.807-4.286-2.807-6.797
							c0-2.511,1.031-5.022,2.807-6.797c3.622-3.623,10.05-3.55,13.593,0c1.775,1.775,2.807,4.286,2.807,6.797
							c0,2.511-1.031,5.022-2.807,6.797C358.197,563.806,355.758,564.838,353.167,564.838z"/>
						<path d="M465.84,522.354c-2.511,0-4.949-1.031-6.797-2.807c-1.775-1.775-2.807-4.286-2.807-6.797
							c0-2.511,1.031-4.949,2.807-6.797c3.622-3.55,9.979-3.55,13.593,0c1.775,1.847,2.807,4.286,2.807,6.797
							c0,2.511-1.031,5.022-2.807,6.797C470.87,521.323,468.431,522.354,465.84,522.354z"/>
						<path d="M488.006,526.048c-2.51,0-5.022-1.031-6.797-2.807c-1.775-1.775-2.807-4.286-2.807-6.797s1.031-5.022,2.807-6.797
							c3.622-3.55,9.979-3.55,13.593,0c1.775,1.775,2.807,4.286,2.807,6.797s-1.032,5.022-2.807,6.797
							C493.035,525.017,490.516,526.048,488.006,526.048z"/>
						<path d="M469.535,555.602c-2.511,0-4.95-1.032-6.797-2.807c-1.776-1.775-2.807-4.286-2.807-6.797
							c0-2.51,1.031-5.022,2.807-6.796c3.622-3.55,10.05-3.55,13.593,0c1.776,1.775,2.807,4.286,2.807,6.796
							c0,2.511-1.031,5.022-2.807,6.797C474.564,554.57,472.045,555.602,469.535,555.602z"/>
						<path d="M499.088,553.755c-2.511,0-4.949-1.032-6.797-2.807c-1.775-1.775-2.807-4.286-2.807-6.797
							c0-2.51,1.031-5.022,2.807-6.797c3.622-3.55,10.051-3.55,13.593,0c1.775,1.775,2.807,4.286,2.807,6.797
							c0,2.511-1.031,5.022-2.807,6.797C504.117,552.723,501.599,553.755,499.088,553.755z"/>
						<path d="M465.84,522.354c-2.511,0-4.949-1.031-6.797-2.807c-1.775-1.775-2.807-4.286-2.807-6.797
							c0-2.511,1.031-4.949,2.807-6.797c3.622-3.55,9.979-3.55,13.593,0c1.775,1.847,2.807,4.286,2.807,6.797
							c0,2.511-1.031,5.022-2.807,6.797C470.87,521.323,468.431,522.354,465.84,522.354z"/>
						<path d="M488.006,526.048c-2.51,0-5.022-1.031-6.797-2.807c-1.775-1.775-2.807-4.286-2.807-6.797s1.031-5.022,2.807-6.797
							c3.622-3.55,9.979-3.55,13.593,0c1.775,1.775,2.807,4.286,2.807,6.797s-1.032,5.022-2.807,6.797
							C493.035,525.017,490.516,526.048,488.006,526.048z"/>
						<path d="M471.382,492.801c-2.511,0-5.022-1.031-6.797-2.807c-1.775-1.775-2.807-4.286-2.807-6.797s1.031-5.022,2.807-6.797
							c3.622-3.55,9.979-3.55,13.593,0c1.776,1.775,2.807,4.286,2.807,6.797s-1.031,5.022-2.807,6.797
							C476.411,491.769,473.972,492.801,471.382,492.801z"/>
						<path d="M500.935,503.883c-2.511,0-4.949-1.031-6.797-2.807c-1.775-1.775-2.807-4.286-2.807-6.797
							c0-2.511,1.031-5.022,2.807-6.797c3.622-3.55,9.979-3.55,13.593,0c1.775,1.775,2.807,4.286,2.807,6.797
							c0,2.511-1.031,5.022-2.807,6.797C505.965,502.852,503.446,503.883,500.935,503.883z"/>
						<path d="M517.559,527.896c-2.511,0-4.95-1.031-6.797-2.807c-1.775-1.775-2.807-4.286-2.807-6.797
							c0-2.511,1.031-5.022,2.807-6.797c3.622-3.55,9.979-3.55,13.593,0c1.775,1.775,2.807,4.286,2.807,6.797
							c0,2.511-1.031,5.022-2.807,6.797C522.589,526.864,520.07,527.896,517.559,527.896z"/>
						<path d="M532.336,544.519c-2.511,0-5.022-1.031-6.797-2.807c-1.775-1.775-2.807-4.286-2.807-6.797
							c0-2.511,1.031-4.95,2.807-6.797c3.622-3.55,9.979-3.55,13.593,0c1.775,1.775,2.807,4.286,2.807,6.797
							c0,2.51-1.031,5.022-2.807,6.797C537.365,543.488,534.926,544.519,532.336,544.519z"/>
						<path d="M536.03,574.073c-2.511,0-4.95-1.032-6.797-2.807c-1.775-1.775-2.807-4.286-2.807-6.797
							c0-2.511,1.031-5.022,2.807-6.797c3.622-3.55,9.979-3.55,13.593,0c1.775,1.775,2.807,4.286,2.807,6.797
							c0,2.511-1.031,5.022-2.807,6.797C541.06,573.041,538.541,574.073,536.03,574.073z"/>
						<path d="M537.877,500.189c-2.511,0-4.949-1.031-6.797-2.807c-1.775-1.847-2.807-4.286-2.807-6.797s1.031-5.022,2.807-6.797
							c3.622-3.55,9.979-3.55,13.593,0c1.775,1.775,2.807,4.286,2.807,6.797s-1.031,5.022-2.807,6.797
							C542.907,499.158,540.388,500.189,537.877,500.189z"/>
						<path d="M506.477,478.024c-2.511,0-4.949-1.031-6.797-2.807c-1.775-1.775-2.807-4.286-2.807-6.797
							c0-2.51,1.031-5.022,2.807-6.797c3.622-3.55,9.979-3.55,13.593,0c1.775,1.775,2.807,4.286,2.807,6.797
							c0,2.511-1.031,5.022-2.807,6.797C511.506,476.992,508.987,478.024,506.477,478.024z"/>
						<path d="M469.535,466.941c-2.511,0-4.95-1.031-6.797-2.807c-1.776-1.775-2.807-4.286-2.807-6.797
							c0-2.51,1.031-5.022,2.807-6.797c3.622-3.55,10.05-3.55,13.593,0c1.776,1.775,2.807,4.286,2.807,6.797
							c0,2.511-1.031,5.022-2.807,6.797C474.564,465.91,472.045,466.941,469.535,466.941z"/>
						<path d="M504.629,579.614c-2.511,0-5.022-1.032-6.797-2.807c-1.775-1.775-2.807-4.286-2.807-6.797s1.031-5.022,2.807-6.797
							c3.622-3.55,10.051-3.55,13.593,0c1.775,1.775,2.807,4.286,2.807,6.797s-1.031,5.022-2.807,6.797
							C509.659,578.583,507.22,579.614,504.629,579.614z"/>
						<path d="M297.755,546.367c-2.511,0-4.949-1.031-6.797-2.807c-1.776-1.775-2.807-4.286-2.807-6.796
							c0-2.511,1.031-5.022,2.807-6.797c3.55-3.55,10.05-3.55,13.593,0c1.776,1.775,2.807,4.286,2.807,6.797
							c0,2.51-1.031,5.022-2.807,6.796C302.784,545.335,300.265,546.367,297.755,546.367z"/>
						<path d="M373.486,505.73c-2.511,0-4.949-1.031-6.797-2.807c-1.775-1.775-2.807-4.286-2.807-6.797
							c0-2.511,1.032-5.022,2.807-6.797c3.622-3.55,10.05-3.55,13.593,0c1.775,1.775,2.807,4.286,2.807,6.797
							c0,2.511-1.031,5.022-2.807,6.797C378.515,504.699,375.996,505.73,373.486,505.73z"/>
						<path d="M423.357,494.648c-2.511,0-5.022-1.031-6.797-2.807c-1.775-1.775-2.807-4.286-2.807-6.797
							c0-2.511,1.031-5.022,2.807-6.797c3.622-3.622,10.051-3.55,13.593,0c1.775,1.775,2.807,4.286,2.807,6.797
							c0,2.511-1.031,5.022-2.807,6.797C428.386,493.616,425.868,494.648,423.357,494.648z"/>
						<path d="M377.18,612.862c-2.511,0-4.949-1.032-6.797-2.807c-1.775-1.775-2.807-4.286-2.807-6.797
							c0-2.511,1.031-5.022,2.807-6.797c3.55-3.55,10.05-3.55,13.593,0c1.776,1.775,2.807,4.286,2.807,6.797
							c0,2.511-1.031,5.022-2.807,6.797C382.209,611.83,379.69,612.862,377.18,612.862z"/>
						<path d="M159.222,622.097c-2.511,0-4.95-1.032-6.797-2.807c-1.775-1.775-2.807-4.286-2.807-6.797
							c0-2.511,1.031-5.022,2.807-6.797c3.55-3.55,10.05-3.55,13.593,0c1.775,1.775,2.807,4.286,2.807,6.797
							c0,2.511-1.031,5.022-2.807,6.797C164.251,621.066,161.733,622.097,159.222,622.097z"/>
						<path d="M231.259,620.25c-2.511,0-4.95-1.032-6.797-2.807c-1.775-1.775-2.807-4.286-2.807-6.797
							c0-2.511,1.031-4.95,2.807-6.797c3.55-3.55,9.979-3.55,13.593,0c1.775,1.775,2.807,4.286,2.807,6.797
							c0,2.511-1.031,5.022-2.807,6.797C236.288,619.219,233.77,620.25,231.259,620.25z"/>
						<path d="M199.858,625.792c-2.511,0-5.022-1.032-6.797-2.807c-1.775-1.775-2.807-4.286-2.807-6.797
							c0-2.511,1.031-5.022,2.807-6.797c3.622-3.55,10.05-3.55,13.593,0c1.775,1.775,2.807,4.286,2.807,6.797
							c0,2.511-1.031,5.022-2.807,6.797C204.888,624.76,202.449,625.792,199.858,625.792z"/>
						<path d="M279.284,625.792c-2.511,0-5.022-1.032-6.797-2.807c-1.775-1.775-2.807-4.286-2.807-6.797
							c0-2.511,1.031-5.022,2.807-6.797c3.622-3.55,10.05-3.55,13.593,0c1.775,1.775,2.807,4.286,2.807,6.797
							c0,2.511-1.031,5.022-2.807,6.797C284.313,624.76,281.874,625.792,279.284,625.792z"/>
						<path d="M480.617,618.403c-2.51,0-5.022-1.032-6.797-2.807c-1.775-1.775-2.807-4.286-2.807-6.797
							c0-2.511,1.031-5.022,2.807-6.797c3.622-3.55,10.05-3.55,13.593,0c1.776,1.775,2.807,4.286,2.807,6.797
							c0,2.511-1.031,5.022-2.807,6.797C485.646,617.372,483.128,618.403,480.617,618.403z"/>
						<path d="M480.617,618.403c-2.51,0-5.022-1.032-6.797-2.807c-1.775-1.775-2.807-4.286-2.807-6.797
							c0-2.511,1.031-5.022,2.807-6.797c3.622-3.55,10.05-3.55,13.593,0c1.776,1.775,2.807,4.286,2.807,6.797
							c0,2.511-1.031,5.022-2.807,6.797C485.646,617.372,483.128,618.403,480.617,618.403z"/>
						<path d="M415.969,605.474c-2.511,0-4.949-1.032-6.797-2.807c-1.775-1.775-2.807-4.286-2.807-6.797
							c0-2.511,1.031-4.95,2.807-6.797c3.622-3.55,9.979-3.55,13.593,0c1.775,1.847,2.807,4.286,2.807,6.797
							c0,2.511-1.031,5.022-2.807,6.797C420.998,604.442,418.479,605.474,415.969,605.474z"/>
						<path d="M373.486,587.003c-2.511,0-4.949-1.032-6.797-2.807c-1.775-1.775-2.807-4.286-2.807-6.797
							c0-2.511,1.032-5.022,2.807-6.797c3.55-3.55,10.05-3.55,13.593,0c1.775,1.775,2.807,4.286,2.807,6.797
							c0,2.511-1.031,5.022-2.807,6.797C378.515,585.971,375.996,587.003,373.486,587.003z"/>
					</g>
				</g>
			</g>
			<g style="clip-path:url(#SVGID_00000083088468676081756260000015039033740483785655_);">
				<g>
					<g>
						<path d="M246.036,659.039c-2.511,0-4.95-1.031-6.797-2.807c-1.775-1.775-2.807-4.286-2.807-6.797
							c0-2.511,1.031-5.022,2.807-6.797c3.622-3.55,10.05-3.55,13.593,0c1.775,1.775,2.807,4.286,2.807,6.797
							c0,2.511-1.031,4.95-2.807,6.797C251.065,658.008,248.546,659.039,246.036,659.039z"/>
						<path d="M181.387,673.816c-2.511,0-5.022-1.031-6.797-2.807c-1.775-1.775-2.807-4.286-2.807-6.797
							c0-2.511,1.031-5.022,2.807-6.797c3.622-3.55,10.05-3.55,13.593,0c1.775,1.847,2.807,4.286,2.807,6.797
							c0,2.511-1.031,5.022-2.807,6.797C186.417,672.785,183.978,673.816,181.387,673.816z"/>
						<path d="M183.234,642.416c-2.511,0-4.949-1.031-6.797-2.807c-1.775-1.775-2.807-4.286-2.807-6.797
							c0-2.51,1.031-5.022,2.807-6.796c3.622-3.623,10.05-3.55,13.593,0c1.775,1.847,2.807,4.286,2.807,6.796
							c0,2.511-1.031,5.022-2.807,6.797C188.264,641.384,185.745,642.416,183.234,642.416z"/>
						<path d="M205.4,671.969c-2.511,0-5.022-1.031-6.797-2.807c-1.775-1.775-2.807-4.286-2.807-6.797
							c0-2.511,1.032-5.022,2.807-6.797c3.622-3.55,10.05-3.55,13.593,0c1.775,1.775,2.807,4.286,2.807,6.797
							c0,2.511-1.031,5.022-2.807,6.797C210.429,670.938,207.91,671.969,205.4,671.969z"/>
						<path d="M222.023,646.11c-2.51,0-4.949-1.031-6.796-2.807c-1.776-1.775-2.807-4.286-2.807-6.797
							c0-2.51,1.031-5.022,2.807-6.797c3.622-3.55,10.05-3.55,13.593,0c1.775,1.775,2.807,4.286,2.807,6.797
							c0,2.511-1.031,5.022-2.807,6.797C227.053,645.078,224.534,646.11,222.023,646.11z"/>
						<path d="M288.519,653.498c-2.511,0-4.95-1.032-6.797-2.807c-1.775-1.775-2.807-4.286-2.807-6.797
							c0-2.51,1.031-5.022,2.807-6.797c3.622-3.55,10.05-3.55,13.593,0c1.776,1.775,2.807,4.286,2.807,6.797
							c0,2.511-1.031,5.022-2.807,6.797C293.548,652.467,291.03,653.498,288.519,653.498z"/>
						<path d="M258.965,640.568c-2.511,0-4.949-1.031-6.797-2.807c-1.775-1.775-2.807-4.286-2.807-6.797
							c0-2.51,1.031-5.022,2.807-6.797c3.55-3.55,10.05-3.623,13.593,0c1.775,1.775,2.807,4.286,2.807,6.797
							c0,2.511-1.031,5.022-2.807,6.797C263.995,639.537,261.476,640.568,258.965,640.568z"/>
						<path d="M199.858,625.792c-2.511,0-5.022-1.031-6.797-2.807c-1.775-1.775-2.807-4.286-2.807-6.797
							c0-2.511,1.031-5.022,2.807-6.797c3.55-3.55,10.05-3.55,13.593,0c1.775,1.775,2.807,4.286,2.807,6.797
							c0,2.51-1.031,5.022-2.807,6.797C204.888,624.76,202.449,625.792,199.858,625.792z"/>
						<path d="M279.284,625.792c-2.511,0-4.949-1.031-6.797-2.807c-1.775-1.847-2.807-4.286-2.807-6.797
							c0-2.511,1.031-4.95,2.807-6.797c3.622-3.55,9.979-3.55,13.593,0c1.775,1.775,2.807,4.286,2.807,6.797
							c0,2.51-1.031,5.022-2.807,6.797C284.313,624.76,281.794,625.792,279.284,625.792z"/>
						<path d="M308.837,633.18c-2.51,0-4.949-1.031-6.797-2.807c-1.775-1.775-2.807-4.286-2.807-6.797
							c0-2.511,1.031-5.022,2.807-6.797c3.622-3.55,10.05-3.55,13.593,0c1.775,1.775,2.807,4.286,2.807,6.797
							c0,2.51-1.031,5.022-2.807,6.797C313.866,632.149,311.348,633.18,308.837,633.18z"/>
						<path d="M288.519,653.498c-2.511,0-4.95-1.032-6.797-2.807c-1.775-1.775-2.807-4.286-2.807-6.797
							c0-2.51,1.031-5.022,2.807-6.797c3.622-3.55,10.05-3.55,13.593,0c1.776,1.775,2.807,4.286,2.807,6.797
							c0,2.511-1.031,5.022-2.807,6.797C293.548,652.467,291.03,653.498,288.519,653.498z"/>
						<path d="M282.978,673.816c-2.511,0-5.022-1.031-6.797-2.807c-1.775-1.775-2.807-4.286-2.807-6.797
							c0-2.511,1.031-5.022,2.807-6.797c3.622-3.55,9.979-3.622,13.593,0c1.775,1.775,2.807,4.286,2.807,6.797
							c0,2.511-1.031,5.022-2.807,6.797C288.007,672.785,285.488,673.816,282.978,673.816z"/>
						<path d="M268.201,695.981c-2.511,0-4.949-1.031-6.797-2.807c-1.775-1.847-2.807-4.286-2.807-6.797s1.031-4.949,2.807-6.797
							c3.622-3.55,10.05-3.55,13.593,0c1.775,1.847,2.807,4.286,2.807,6.797s-1.031,4.95-2.807,6.797
							C273.23,694.95,270.712,695.981,268.201,695.981z"/>
						<path d="M238.647,683.052c-2.511,0-4.95-1.031-6.797-2.807c-1.775-1.775-2.807-4.286-2.807-6.797s1.031-5.022,2.807-6.797
							c3.622-3.55,10.05-3.55,13.593,0c1.775,1.775,2.807,4.286,2.807,6.797s-1.032,5.022-2.807,6.797
							C243.677,682.02,241.158,683.052,238.647,683.052z"/>
						<path d="M236.8,708.911c-2.51,0-4.949-1.031-6.797-2.807c-1.775-1.775-2.807-4.286-2.807-6.797
							c0-2.511,1.031-5.022,2.807-6.797c3.622-3.55,10.051-3.55,13.593,0c1.775,1.775,2.807,4.286,2.807,6.797
							c0,2.51-1.031,5.022-2.807,6.797C241.83,707.88,239.311,708.911,236.8,708.911z"/>
						<path d="M199.858,701.523c-2.511,0-4.95-1.031-6.797-2.807c-1.775-1.775-2.807-4.286-2.807-6.797
							c0-2.511,1.031-5.022,2.807-6.797c3.55-3.55,10.05-3.55,13.593,0c1.775,1.775,2.807,4.286,2.807,6.797
							c0,2.511-1.031,5.022-2.807,6.797C204.888,700.491,202.369,701.523,199.858,701.523z"/>
						<path d="M223.871,725.535c-2.51,0-4.949-1.031-6.796-2.807c-1.775-1.775-2.807-4.286-2.807-6.797
							c0-2.51,1.031-5.022,2.807-6.797c3.55-3.55,10.05-3.55,13.593,0c1.775,1.775,2.807,4.286,2.807,6.797
							c0,2.511-1.031,5.022-2.807,6.797C228.9,724.504,226.381,725.535,223.871,725.535z"/>
						<path d="M242.342,753.241c-2.511,0-4.95-1.031-6.797-2.807c-1.775-1.775-2.807-4.286-2.807-6.797s1.031-5.022,2.807-6.797
							c3.55-3.55,9.979-3.55,13.593,0c1.775,1.775,2.807,4.286,2.807,6.797s-1.032,5.022-2.807,6.797
							C247.371,752.21,244.852,753.241,242.342,753.241z"/>
						<path d="M262.66,758.783c-2.511,0-5.022-1.031-6.797-2.807c-1.775-1.775-2.807-4.286-2.807-6.797
							c0-2.511,1.031-4.95,2.807-6.797c3.622-3.55,10.05-3.55,13.593,0c1.775,1.847,2.807,4.286,2.807,6.797
							c0,2.511-1.031,5.022-2.807,6.797C267.689,757.751,265.17,758.783,262.66,758.783z"/>
						<path d="M284.825,745.853c-2.511,0-5.022-1.031-6.797-2.807c-1.775-1.775-2.807-4.286-2.807-6.797
							c0-2.511,1.031-5.022,2.807-6.797c3.55-3.55,10.05-3.55,13.593,0c1.775,1.775,2.807,4.286,2.807,6.797
							c0,2.511-1.031,5.022-2.807,6.797C289.854,744.822,287.415,745.853,284.825,745.853z"/>
						<path d="M281.131,721.841c-2.511,0-5.022-1.031-6.797-2.807c-1.775-1.775-2.807-4.286-2.807-6.796
							c0-2.511,1.031-5.022,2.807-6.797c3.622-3.55,10.05-3.55,13.593,0c1.775,1.775,2.807,4.286,2.807,6.797
							c0,2.51-1.031,5.022-2.807,6.796C286.16,720.809,283.641,721.841,281.131,721.841z"/>
						<path d="M295.908,705.217c-2.511,0-5.022-1.031-6.797-2.807c-1.776-1.775-2.807-4.286-2.807-6.797
							c0-2.511,1.031-5.022,2.807-6.797c3.622-3.55,10.05-3.55,13.593,0c1.775,1.847,2.807,4.286,2.807,6.797
							c0,2.51-1.031,4.949-2.807,6.797C300.937,704.185,298.498,705.217,295.908,705.217z"/>
						<path d="M327.308,705.217c-2.511,0-5.022-1.031-6.797-2.807c-1.775-1.775-2.807-4.286-2.807-6.797
							c0-2.511,1.031-5.022,2.807-6.797c3.622-3.55,10.051-3.55,13.593,0c1.775,1.775,2.807,4.286,2.807,6.797
							c0,2.51-1.031,5.022-2.807,6.797C332.337,704.185,329.819,705.217,327.308,705.217z"/>
						<path d="M314.378,740.312c-2.51,0-4.949-1.032-6.797-2.807c-1.775-1.775-2.807-4.286-2.807-6.797
							c0-2.51,1.031-5.022,2.807-6.797c3.694-3.622,10.05-3.55,13.593,0c1.775,1.775,2.807,4.286,2.807,6.797
							c0,2.511-1.032,5.022-2.807,6.797C319.408,739.28,316.889,740.312,314.378,740.312z"/>
						<path d="M331.002,766.171c-2.511,0-5.022-1.031-6.797-2.807c-1.775-1.775-2.807-4.286-2.807-6.797
							c0-2.511,1.031-5.022,2.807-6.797c3.622-3.55,10.051-3.55,13.593,0c1.775,1.847,2.807,4.286,2.807,6.797
							c0,2.511-1.031,5.022-2.807,6.797C336.032,765.14,333.513,766.171,331.002,766.171z"/>
						<path d="M305.143,768.018c-2.51,0-5.022-1.031-6.796-2.807c-1.776-1.775-2.807-4.286-2.807-6.797s1.031-5.022,2.807-6.797
							c3.622-3.55,10.05-3.55,13.593,0c1.776,1.775,2.807,4.286,2.807,6.797s-1.031,5.022-2.807,6.797
							C310.172,766.987,307.733,768.018,305.143,768.018z"/>
						<path d="M279.284,773.56c-2.511,0-4.949-1.031-6.797-2.807c-1.775-1.775-2.807-4.286-2.807-6.797
							c0-2.511,1.031-4.95,2.807-6.797c3.622-3.55,10.05-3.55,13.593,0c1.775,1.775,2.807,4.286,2.807,6.797
							c0,2.511-1.031,5.022-2.807,6.797C284.313,772.528,281.794,773.56,279.284,773.56z"/>
						<path d="M349.473,732.923c-2.511,0-5.022-1.031-6.797-2.807c-1.775-1.775-2.807-4.286-2.807-6.797
							c0-2.51,1.031-5.022,2.807-6.797c3.622-3.55,10.05-3.55,13.593,0c1.847,1.847,2.807,4.286,2.807,6.797
							c0,2.511-0.96,4.95-2.807,6.797C354.503,731.892,351.984,732.923,349.473,732.923z"/>
						<path d="M310.684,679.357c-2.51,0-5.022-1.031-6.797-2.807c-1.776-1.775-2.807-4.286-2.807-6.797
							c0-2.511,1.031-5.022,2.807-6.797c3.622-3.55,10.05-3.55,13.593,0c1.775,1.775,2.807,4.286,2.807,6.797
							c0,2.511-1.031,5.022-2.807,6.797C315.714,678.326,313.275,679.357,310.684,679.357z"/>
						<path d="M325.461,657.192c-2.511,0-5.022-1.031-6.797-2.807c-1.775-1.775-2.807-4.286-2.807-6.797
							c0-2.51,1.031-5.022,2.807-6.797c3.55-3.55,10.051-3.55,13.593,0c1.775,1.775,2.807,4.286,2.807,6.797
							c0,2.511-1.031,5.022-2.807,6.797C330.49,656.161,328.051,657.192,325.461,657.192z"/>
						<path d="M345.779,631.333c-2.511,0-5.022-1.031-6.797-2.807c-1.775-1.775-2.807-4.286-2.807-6.797
							c0-2.511,1.031-5.022,2.807-6.797c3.622-3.55,10.05-3.55,13.593,0c1.847,1.847,2.807,4.286,2.807,6.797
							c0,2.51-0.96,4.949-2.807,6.797C350.808,630.302,348.29,631.333,345.779,631.333z"/>
						<path d="M351.32,655.345c-2.511,0-5.022-1.031-6.797-2.807c-1.775-1.775-2.807-4.286-2.807-6.797
							c0-2.51,1.031-5.022,2.807-6.797c3.622-3.622,10.05-3.55,13.593,0c1.847,1.847,2.807,4.286,2.807,6.797
							c0,2.511-0.96,4.949-2.807,6.797C356.35,654.314,353.831,655.345,351.32,655.345z"/>
						<path d="M349.473,677.51c-2.511,0-4.949-1.031-6.797-2.807c-1.775-1.775-2.807-4.286-2.807-6.797
							c0-2.511,1.031-5.022,2.807-6.797c3.622-3.55,10.05-3.55,13.593,0c1.847,1.847,2.807,4.286,2.807,6.797
							c0,2.511-0.96,4.95-2.807,6.797C354.503,676.479,351.984,677.51,349.473,677.51z"/>
						<path d="M351.32,705.217c-2.511,0-5.022-1.031-6.797-2.807c-1.775-1.775-2.807-4.286-2.807-6.797
							c0-2.511,1.031-5.022,2.807-6.797c3.622-3.55,10.05-3.55,13.593,0c1.847,1.847,2.807,4.286,2.807,6.797
							c0,2.51-0.96,4.949-2.807,6.797C356.35,704.185,353.831,705.217,351.32,705.217z"/>
						<path d="M377.18,644.263c-2.511,0-4.949-1.031-6.797-2.807c-1.775-1.775-2.807-4.286-2.807-6.797
							c0-2.51,1.031-5.022,2.807-6.797c3.55-3.55,10.05-3.55,13.593,0c1.776,1.775,2.807,4.286,2.807,6.797
							c0,2.511-1.031,5.022-2.807,6.797C382.209,643.231,379.69,644.263,377.18,644.263z"/>
						<path d="M382.721,671.969c-2.511,0-4.95-1.031-6.797-2.807c-1.776-1.775-2.807-4.286-2.807-6.797
							c0-2.511,1.031-5.022,2.807-6.797c3.622-3.55,10.05-3.55,13.593,0c1.776,1.775,2.807,4.286,2.807,6.797
							c0,2.511-1.031,5.022-2.807,6.797C387.75,670.938,385.232,671.969,382.721,671.969z"/>
						<path d="M379.027,701.523c-2.511,0-4.949-1.031-6.797-2.807c-1.775-1.775-2.807-4.286-2.807-6.797
							c0-2.511,1.031-5.022,2.807-6.797c3.55-3.55,10.05-3.622,13.593,0c1.775,1.775,2.807,4.286,2.807,6.797
							c0,2.511-1.031,4.949-2.807,6.797C384.056,700.491,381.537,701.523,379.027,701.523z"/>
						<path d="M380.874,734.771c-2.511,0-4.949-1.031-6.797-2.807c-1.776-1.775-2.807-4.286-2.807-6.797
							c0-2.51,1.031-5.022,2.807-6.797c3.55-3.55,10.05-3.55,13.593,0c1.776,1.775,2.807,4.286,2.807,6.797
							c0,2.511-1.031,5.022-2.807,6.797C385.903,733.739,383.384,734.771,380.874,734.771z"/>
						<path d="M391.956,760.63c-2.51,0-4.949-1.031-6.796-2.807c-1.776-1.775-2.807-4.286-2.807-6.797
							c0-2.511,1.031-5.022,2.807-6.797c3.55-3.55,10.05-3.622,13.593,0c1.776,1.775,2.807,4.286,2.807,6.797
							c0,2.511-1.031,5.022-2.807,6.797C396.986,759.598,394.467,760.63,391.956,760.63z"/>
						<path d="M356.862,758.783c-2.511,0-4.949-1.031-6.797-2.807c-1.775-1.775-2.807-4.286-2.807-6.797
							c0-2.511,1.031-5.022,2.807-6.797c3.55-3.55,10.05-3.55,13.593,0c1.775,1.775,2.807,4.286,2.807,6.797
							c0,2.511-1.031,5.022-2.807,6.797C361.891,757.751,359.372,758.783,356.862,758.783z"/>
						<path d="M366.097,792.031c-2.511,0-4.949-1.031-6.797-2.807c-1.775-1.775-2.807-4.286-2.807-6.797
							c0-2.511,1.031-5.022,2.807-6.797c3.622-3.55,10.05-3.55,13.593,0c1.775,1.775,2.807,4.286,2.807,6.797
							c0,2.51-1.031,5.022-2.807,6.797C371.126,790.999,368.608,792.031,366.097,792.031z"/>
						<path d="M334.697,790.183c-2.511,0-4.949-1.031-6.797-2.807c-1.775-1.775-2.807-4.286-2.807-6.797
							c0-2.511,1.031-5.022,2.807-6.797c3.622-3.55,10.05-3.55,13.593,0c1.775,1.775,2.807,4.286,2.807,6.797
							c0,2.51-1.031,5.022-2.807,6.797C339.726,789.152,337.207,790.183,334.697,790.183z"/>
						<path d="M414.122,745.853c-2.511,0-4.95-1.031-6.797-2.807c-1.775-1.775-2.807-4.286-2.807-6.797
							c0-2.511,1.031-5.022,2.807-6.797c3.622-3.55,10.05-3.55,13.593,0c1.775,1.775,2.807,4.286,2.807,6.797
							c0,2.511-1.031,5.022-2.807,6.797C419.151,744.822,416.632,745.853,414.122,745.853z"/>
						<path d="M406.733,719.994c-2.51,0-5.022-1.031-6.797-2.807c-1.775-1.775-2.807-4.286-2.807-6.797
							c0-2.511,1.031-5.022,2.807-6.797c3.622-3.55,10.051-3.55,13.593,0c1.775,1.775,2.807,4.286,2.807,6.797
							c0,2.51-1.031,5.022-2.807,6.797C411.763,718.962,409.324,719.994,406.733,719.994z"/>
						<path d="M408.58,690.44c-2.51,0-5.022-1.031-6.797-2.807c-1.775-1.775-2.807-4.286-2.807-6.797
							c0-2.511,1.031-5.022,2.807-6.797c3.622-3.55,10.051-3.55,13.593,0c1.775,1.775,2.807,4.286,2.807,6.797
							c0,2.511-1.032,5.022-2.807,6.797C413.61,689.409,411.091,690.44,408.58,690.44z"/>
						<path d="M406.733,659.039c-2.51,0-4.949-1.031-6.797-2.807c-1.775-1.775-2.807-4.286-2.807-6.797
							c0-2.511,1.031-5.022,2.807-6.797c3.622-3.55,9.979-3.55,13.593,0c1.775,1.775,2.807,4.286,2.807,6.797
							c0,2.511-1.031,5.022-2.807,6.797C411.763,658.008,409.244,659.039,406.733,659.039z"/>
						<path d="M404.886,635.027c-2.51,0-5.022-1.031-6.797-2.807c-1.776-1.775-2.807-4.286-2.807-6.796
							c0-2.511,1.031-5.022,2.807-6.797c3.622-3.55,10.05-3.55,13.593,0c1.775,1.775,2.807,4.286,2.807,6.797
							c0,2.51-1.031,5.022-2.807,6.796C409.915,633.996,407.477,635.027,404.886,635.027z"/>
						<path d="M441.828,627.639c-2.511,0-4.949-1.031-6.797-2.807c-1.775-1.775-2.807-4.286-2.807-6.797
							c0-2.511,1.031-5.022,2.807-6.797c3.622-3.55,10.05-3.55,13.593,0c1.775,1.775,2.807,4.286,2.807,6.797
							c0,2.51-1.031,5.022-2.807,6.797C446.857,626.607,444.339,627.639,441.828,627.639z"/>
						<path d="M436.287,659.039c-2.511,0-5.022-1.031-6.797-2.807c-1.775-1.775-2.807-4.286-2.807-6.797
							c0-2.511,1.031-5.022,2.807-6.797c3.622-3.55,10.05-3.55,13.593,0c1.775,1.775,2.807,4.286,2.807,6.797
							c0,2.511-1.031,5.022-2.807,6.797C441.316,658.008,438.797,659.039,436.287,659.039z"/>
						<path d="M462.146,659.039c-2.511,0-4.95-1.031-6.797-2.807c-1.775-1.775-2.807-4.286-2.807-6.797
							c0-2.511,1.031-4.949,2.807-6.797c3.55-3.55,9.979-3.55,13.593,0c1.776,1.775,2.807,4.286,2.807,6.797
							c0,2.511-1.031,5.022-2.807,6.797C467.175,658.008,464.657,659.039,462.146,659.039z"/>
						<path d="M460.299,684.899c-2.511,0-4.949-1.031-6.797-2.807c-1.775-1.775-2.807-4.286-2.807-6.797s1.032-4.95,2.807-6.797
							c3.622-3.55,10.05-3.55,13.593,0c1.847,1.775,2.807,4.286,2.807,6.797s-0.96,5.022-2.807,6.797
							C465.328,683.867,462.81,684.899,460.299,684.899z"/>
						<path d="M432.593,683.052c-2.511,0-4.949-1.031-6.797-2.807c-1.775-1.775-2.807-4.286-2.807-6.797s1.031-5.022,2.807-6.797
							c3.55-3.55,10.05-3.55,13.593,0c1.775,1.775,2.807,4.286,2.807,6.797c0,2.583-1.031,5.022-2.807,6.797
							C437.622,682.02,435.103,683.052,432.593,683.052z"/>
						<path d="M434.44,716.299c-2.511,0-4.949-1.031-6.797-2.807c-1.775-1.775-2.807-4.286-2.807-6.797
							c0-2.511,1.031-5.022,2.807-6.797c3.622-3.55,9.979-3.55,13.593,0c1.775,1.775,2.807,4.286,2.807,6.797
							c0,2.51-1.031,5.022-2.807,6.797C439.469,715.268,436.95,716.299,434.44,716.299z"/>
						<path d="M460.299,716.299c-2.511,0-4.949-1.031-6.797-2.807c-1.775-1.775-2.807-4.286-2.807-6.797
							c0-2.511,1.032-5.022,2.807-6.797c3.622-3.55,10.05-3.55,13.593,0c1.847,1.775,2.807,4.286,2.807,6.797
							c0,2.51-1.031,5.022-2.807,6.797C465.328,715.268,462.81,716.299,460.299,716.299z"/>
						<path d="M439.981,742.159c-2.511,0-4.949-1.031-6.797-2.807c-1.775-1.775-2.807-4.286-2.807-6.797
							c0-2.51,1.031-5.022,2.807-6.797c3.622-3.55,9.979-3.55,13.593,0c1.775,1.775,2.807,4.286,2.807,6.797
							c0,2.511-1.031,5.022-2.807,6.797C445.01,741.127,442.492,742.159,439.981,742.159z"/>
						<path d="M471.382,751.394c-2.511,0-4.949-1.031-6.797-2.807c-1.775-1.775-2.807-4.286-2.807-6.797s1.031-5.022,2.807-6.797
							c3.55-3.55,10.05-3.55,13.593,0c1.776,1.775,2.807,4.286,2.807,6.797s-1.031,5.022-2.807,6.797
							C476.411,750.363,473.892,751.394,471.382,751.394z"/>
						<path d="M488.006,729.229c-2.51,0-4.949-1.031-6.797-2.807c-1.775-1.775-2.807-4.286-2.807-6.797
							c0-2.51,1.031-5.022,2.807-6.796c3.55-3.55,9.979-3.55,13.593,0c1.775,1.775,2.807,4.286,2.807,6.796
							c0,2.511-1.032,5.022-2.807,6.797C493.035,728.198,490.516,729.229,488.006,729.229z"/>
						<path d="M489.853,697.828c-2.51,0-5.022-1.031-6.797-2.807c-1.775-1.775-2.807-4.286-2.807-6.797s1.031-5.022,2.807-6.797
							c3.622-3.55,9.979-3.55,13.593,0c1.775,1.775,2.807,4.286,2.807,6.797s-1.031,5.022-2.807,6.797
							C494.882,696.797,492.363,697.828,489.853,697.828z"/>
						<path d="M491.7,660.887c-2.51,0-5.022-1.031-6.797-2.807c-1.776-1.775-2.807-4.286-2.807-6.797
							c0-2.511,1.031-5.022,2.807-6.797c3.622-3.55,9.979-3.55,13.593,0c1.775,1.775,2.807,4.286,2.807,6.797
							c0,2.511-1.031,5.022-2.807,6.797C496.729,659.855,494.21,660.887,491.7,660.887z"/>
						<path d="M502.782,635.027c-2.511,0-5.022-1.031-6.797-2.807c-1.775-1.775-2.807-4.286-2.807-6.796
							c0-2.511,1.031-5.022,2.807-6.797c3.622-3.55,10.051-3.55,13.593,0c1.775,1.775,2.807,4.286,2.807,6.797
							c0,2.51-1.031,5.022-2.807,6.796C507.812,633.996,505.373,635.027,502.782,635.027z"/>
						<path d="M502.782,755.089c-2.511,0-4.949-1.031-6.797-2.807c-1.775-1.775-2.807-4.286-2.807-6.797s1.031-5.022,2.807-6.797
							c3.622-3.55,10.051-3.55,13.593,0c1.775,1.775,2.807,4.286,2.807,6.797s-1.031,5.022-2.807,6.797
							C507.812,754.057,505.293,755.089,502.782,755.089z"/>
						<path d="M491.7,660.887c-2.51,0-5.022-1.031-6.797-2.807c-1.776-1.775-2.807-4.286-2.807-6.797
							c0-2.511,1.031-5.022,2.807-6.797c3.622-3.55,9.979-3.55,13.593,0c1.775,1.775,2.807,4.286,2.807,6.797
							c0,2.511-1.031,5.022-2.807,6.797C496.729,659.855,494.21,660.887,491.7,660.887z"/>
						<path d="M502.782,635.027c-2.511,0-5.022-1.031-6.797-2.807c-1.775-1.775-2.807-4.286-2.807-6.796
							c0-2.511,1.031-5.022,2.807-6.797c3.622-3.55,10.051-3.55,13.593,0c1.775,1.775,2.807,4.286,2.807,6.797
							c0,2.51-1.031,5.022-2.807,6.796C507.812,633.996,505.373,635.027,502.782,635.027z"/>
						<path d="M473.229,640.568c-2.511,0-5.022-1.031-6.797-2.807c-1.775-1.775-2.807-4.286-2.807-6.797
							c0-2.51,1.031-5.022,2.807-6.797c3.622-3.55,10.05-3.55,13.593,0c1.775,1.775,2.807,4.286,2.807,6.797
							c0,2.511-1.031,5.022-2.807,6.797C478.258,639.537,475.739,640.568,473.229,640.568z"/>
						<path d="M222.023,764.324c-2.51,0-4.949-1.031-6.796-2.807c-1.776-1.775-2.807-4.286-2.807-6.797
							c0-2.511,1.031-4.949,2.807-6.797c3.622-3.55,10.05-3.55,13.593,0c1.775,1.847,2.807,4.286,2.807,6.797
							c0,2.511-1.031,5.022-2.807,6.797C227.053,763.293,224.614,764.324,222.023,764.324z"/>
						<path d="M199.858,742.159c-2.511,0-4.95-1.031-6.797-2.807c-1.775-1.775-2.807-4.286-2.807-6.797
							c0-2.51,1.031-5.022,2.807-6.797c3.622-3.55,9.979-3.55,13.593,0c1.775,1.775,2.807,4.286,2.807,6.797
							c0,2.511-1.031,5.022-2.807,6.797C204.888,741.127,202.369,742.159,199.858,742.159z"/>
						<path d="M183.234,719.994c-2.511,0-4.949-1.031-6.797-2.807c-1.775-1.775-2.807-4.286-2.807-6.797
							c0-2.511,1.031-4.95,2.807-6.797c3.622-3.623,10.05-3.55,13.593,0c1.775,1.847,2.807,4.286,2.807,6.797
							c0,2.51-1.031,4.949-2.807,6.797C188.264,718.962,185.745,719.994,183.234,719.994z"/>
						<path d="M166.611,699.676c-2.511,0-4.949-1.031-6.797-2.807c-1.775-1.775-2.807-4.286-2.807-6.797s1.031-4.95,2.807-6.797
							c3.622-3.55,10.051-3.55,13.593,0c1.775,1.775,2.807,4.286,2.807,6.797s-1.031,5.022-2.807,6.797
							C171.64,698.644,169.121,699.676,166.611,699.676z"/>
						<path d="M166.611,745.853c-2.511,0-5.022-1.031-6.797-2.807c-1.775-1.775-2.807-4.286-2.807-6.797
							c0-2.511,1.031-5.022,2.807-6.797c3.622-3.55,10.051-3.55,13.593,0c1.775,1.775,2.807,4.286,2.807,6.797
							c0,2.511-1.031,5.022-2.807,6.797C171.64,744.822,169.201,745.853,166.611,745.853z"/>
						<path d="M251.577,729.229c-2.511,0-5.022-1.031-6.797-2.807c-1.775-1.775-2.807-4.286-2.807-6.797
							c0-2.51,1.031-5.022,2.807-6.796c3.622-3.55,10.051-3.55,13.593,0c1.775,1.775,2.807,4.286,2.807,6.796
							c0,2.511-1.031,5.022-2.807,6.797C256.606,728.198,254.167,729.229,251.577,729.229z"/>
						<path d="M153.681,671.969c-2.511,0-4.949-1.031-6.797-2.807c-1.775-1.775-2.807-4.286-2.807-6.797
							c0-2.511,1.031-4.95,2.807-6.797c3.622-3.55,10.051-3.55,13.593,0c1.775,1.847,2.807,4.286,2.807,6.797
							c0,2.511-1.031,5.022-2.807,6.797C158.71,670.938,156.191,671.969,153.681,671.969z"/>
						<path d="M146.292,695.981c-2.51,0-4.949-1.031-6.796-2.807c-1.776-1.847-2.807-4.286-2.807-6.797s1.031-5.022,2.807-6.797
							c3.622-3.55,10.05-3.55,13.593,0c1.775,1.775,2.807,4.286,2.807,6.797s-1.031,5.022-2.807,6.797
							C151.322,694.95,148.803,695.981,146.292,695.981z"/>
						<path d="M146.292,725.535c-2.51,0-4.949-1.031-6.796-2.807c-1.776-1.847-2.807-4.286-2.807-6.797
							c0-2.51,1.031-5.022,2.807-6.797c3.622-3.55,10.05-3.55,13.593,0c1.775,1.775,2.807,4.286,2.807,6.797
							c0,2.511-1.031,4.949-2.807,6.797C151.322,724.504,148.803,725.535,146.292,725.535z"/>
						<path d="M166.611,745.853c-2.511,0-5.022-1.031-6.797-2.807c-1.775-1.775-2.807-4.286-2.807-6.797
							c0-2.511,1.031-5.022,2.807-6.797c3.622-3.55,10.051-3.55,13.593,0c1.775,1.775,2.807,4.286,2.807,6.797
							c0,2.511-1.031,5.022-2.807,6.797C171.64,744.822,169.201,745.853,166.611,745.853z"/>
						<path d="M270.048,812.349c-2.511,0-4.949-1.031-6.797-2.807c-1.775-1.775-2.807-4.286-2.807-6.797
							c0-2.51,1.031-5.022,2.807-6.797c3.622-3.55,10.05-3.55,13.593,0c1.775,1.847,2.807,4.286,2.807,6.797
							c0,2.511-1.031,5.022-2.807,6.797C275.077,811.317,272.559,812.349,270.048,812.349z"/>
						<path d="M297.755,797.572c-2.511,0-4.949-1.031-6.797-2.807c-1.776-1.775-2.807-4.286-2.807-6.797
							c0-2.511,1.031-5.022,2.807-6.797c3.622-3.55,10.05-3.55,13.593,0c1.776,1.775,2.807,4.286,2.807,6.797
							c0,2.51-1.031,5.022-2.807,6.797C302.784,796.54,300.265,797.572,297.755,797.572z"/>
						<path d="M288.519,827.125c-2.511,0-5.022-1.032-6.797-2.807c-1.775-1.775-2.807-4.286-2.807-6.797
							c0-2.51,1.031-5.022,2.807-6.797c3.622-3.55,10.05-3.55,13.593,0c1.776,1.775,2.807,4.286,2.807,6.797
							c0,2.511-1.031,5.022-2.807,6.797C293.548,826.094,291.109,827.125,288.519,827.125z"/>
						<path d="M268.201,841.902c-2.511,0-4.949-1.031-6.797-2.807c-1.775-1.775-2.807-4.286-2.807-6.797s1.031-5.022,2.807-6.797
							c3.55-3.55,10.05-3.622,13.593,0c1.775,1.775,2.807,4.286,2.807,6.797s-1.031,5.022-2.807,6.797
							C273.23,840.871,270.712,841.902,268.201,841.902z"/>
						<path d="M268.201,899.162c-2.511,0-5.022-1.031-6.797-2.807c-1.775-1.775-2.807-4.286-2.807-6.797
							c0-2.51,1.031-4.949,2.807-6.797c3.622-3.55,10.05-3.55,13.593,0c1.775,1.847,2.807,4.286,2.807,6.797
							c0,2.511-1.031,5.022-2.807,6.797C273.23,898.131,270.712,899.162,268.201,899.162z"/>
						<path d="M266.354,961.964c-2.511,0-4.949-1.031-6.797-2.807c-1.775-1.775-2.807-4.286-2.807-6.797
							c0-2.511,1.031-5.022,2.807-6.797c3.622-3.55,10.05-3.55,13.593,0c1.775,1.775,2.807,4.286,2.807,6.797
							c0,2.51-1.031,5.022-2.807,6.797C271.383,960.932,268.865,961.964,266.354,961.964z"/>
						<path d="M292.213,969.352c-2.511,0-4.949-1.031-6.797-2.807c-1.775-1.775-2.807-4.286-2.807-6.797
							c0-2.511,1.031-5.022,2.807-6.797c3.622-3.55,10.05-3.55,13.593,0c1.775,1.775,2.807,4.286,2.807,6.797
							c0,2.51-1.031,5.022-2.807,6.797C297.242,968.32,294.804,969.352,292.213,969.352z"/>
						<path d="M306.99,945.34c-2.51,0-5.022-1.031-6.797-2.807c-1.775-1.775-2.807-4.286-2.807-6.797s1.031-5.022,2.807-6.797
							c3.622-3.55,9.979-3.55,13.593,0c1.847,1.847,2.807,4.286,2.807,6.797s-1.031,5.022-2.807,6.797
							C312.019,944.308,309.501,945.34,306.99,945.34z"/>
						<path d="M297.755,915.786c-2.511,0-5.022-1.031-6.797-2.807c-1.776-1.775-2.807-4.286-2.807-6.797
							c0-2.51,1.031-5.022,2.807-6.797c3.622-3.55,10.05-3.55,13.593,0c1.776,1.775,2.807,4.286,2.807,6.797
							c0,2.511-1.031,5.022-2.807,6.797C302.784,914.755,300.265,915.786,297.755,915.786z"/>
						<path d="M297.755,886.232c-2.511,0-4.949-1.031-6.797-2.807c-1.776-1.775-2.807-4.286-2.807-6.797
							c0-2.511,1.031-5.022,2.807-6.797c3.622-3.55,10.05-3.55,13.593,0c1.776,1.775,2.807,4.286,2.807,6.797
							c0,2.51-1.031,5.022-2.807,6.797C302.784,885.201,300.265,886.232,297.755,886.232z"/>
						<path d="M273.742,873.303c-2.511,0-4.949-1.031-6.797-2.807c-1.775-1.775-2.807-4.286-2.807-6.797s1.031-5.022,2.807-6.797
							c3.622-3.55,10.05-3.55,13.593,0c1.775,1.775,2.807,4.286,2.807,6.797s-1.031,5.022-2.807,6.797
							C278.772,872.271,276.253,873.303,273.742,873.303z"/>
						<path d="M295.908,847.443c-2.511,0-4.949-1.031-6.797-2.807c-1.776-1.775-2.807-4.286-2.807-6.797
							c0-2.511,1.031-5.022,2.807-6.797c3.622-3.55,10.05-3.55,13.593,0c1.775,1.847,2.807,4.286,2.807,6.797
							c0,2.511-1.031,5.022-2.807,6.797C300.937,846.412,298.418,847.443,295.908,847.443z"/>
						<path d="M318.073,867.761c-2.51,0-4.95-1.031-6.797-2.807c-1.776-1.775-2.807-4.286-2.807-6.797
							c0-2.511,1.031-4.949,2.807-6.797c3.622-3.55,10.05-3.55,13.593,0c1.775,1.775,2.807,4.286,2.807,6.797
							c0,2.511-1.031,5.022-2.807,6.797C323.102,866.73,320.583,867.761,318.073,867.761z"/>
						<path d="M340.238,871.456c-2.511,0-4.949-1.031-6.797-2.807c-1.775-1.775-2.807-4.286-2.807-6.797s1.031-5.022,2.807-6.797
							c3.622-3.55,10.051-3.55,13.593,0c1.775,1.775,2.807,4.286,2.807,6.797s-1.031,5.022-2.807,6.797
							C345.267,870.424,342.748,871.456,340.238,871.456z"/>
						<path d="M321.767,901.009c-2.51,0-4.949-1.031-6.797-2.807c-1.775-1.775-2.807-4.286-2.807-6.797
							c0-2.51,1.031-4.949,2.807-6.797c3.622-3.55,10.051-3.55,13.593,0c1.775,1.775,2.807,4.286,2.807,6.797
							c0,2.511-1.031,5.022-2.807,6.797C326.796,899.978,324.277,901.009,321.767,901.009z"/>
						<path d="M329.155,928.716c-2.511,0-5.022-1.031-6.797-2.807c-1.775-1.775-2.807-4.286-2.807-6.797s1.031-5.022,2.807-6.797
							c3.622-3.55,10.051-3.55,13.593,0c1.775,1.775,2.807,4.286,2.807,6.797s-1.031,5.022-2.807,6.797
							C334.184,927.684,331.746,928.716,329.155,928.716z"/>
						<path d="M306.99,945.34c-2.51,0-5.022-1.031-6.797-2.807c-1.775-1.775-2.807-4.286-2.807-6.797s1.031-5.022,2.807-6.797
							c3.622-3.55,9.979-3.55,13.593,0c1.847,1.847,2.807,4.286,2.807,6.797s-1.031,5.022-2.807,6.797
							C312.019,944.308,309.501,945.34,306.99,945.34z"/>
						<path d="M331.002,956.422c-2.511,0-4.949-1.031-6.797-2.807c-1.775-1.775-2.807-4.286-2.807-6.797
							c0-2.511,1.031-5.022,2.807-6.797c3.622-3.622,10.051-3.55,13.593,0c1.847,1.847,2.807,4.286,2.807,6.797
							c0,2.511-1.031,4.95-2.807,6.797C336.032,955.391,333.513,956.422,331.002,956.422z"/>
						<path d="M353.167,987.823c-2.511,0-5.022-1.031-6.797-2.807c-1.775-1.775-2.807-4.286-2.807-6.797
							c0-2.51,1.031-5.022,2.807-6.797c3.622-3.623,10.05-3.55,13.593,0c1.775,1.775,2.807,4.286,2.807,6.797
							c0,2.511-1.031,5.022-2.807,6.797C358.197,986.792,355.678,987.823,353.167,987.823z"/>
						<path d="M316.225,980.435c-2.51,0-4.949-1.031-6.797-2.807c-1.775-1.775-2.807-4.286-2.807-6.797
							c0-2.511,1.031-5.022,2.807-6.797c3.622-3.55,10.05-3.55,13.593,0c1.775,1.775,2.807,4.286,2.807,6.797
							c0,2.51-1.032,4.949-2.807,6.797C321.255,979.403,318.736,980.435,316.225,980.435z"/>
						<path d="M358.709,958.269c-2.511,0-4.95-1.031-6.797-2.807c-1.775-1.775-2.807-4.286-2.807-6.797s1.031-5.022,2.807-6.797
							c3.55-3.55,10.05-3.55,13.593,0c1.775,1.775,2.807,4.286,2.807,6.797s-1.031,5.022-2.807,6.797
							C363.738,957.238,361.299,958.269,358.709,958.269z"/>
						<path d="M356.862,925.021c-2.511,0-5.022-1.031-6.797-2.807c-1.775-1.775-2.807-4.286-2.807-6.797s1.031-5.022,2.807-6.797
							c3.622-3.55,10.05-3.55,13.593,0c1.775,1.775,2.807,4.286,2.807,6.797s-1.031,5.022-2.807,6.797
							C361.891,923.99,359.452,925.021,356.862,925.021z"/>
						<path d="M351.32,899.162c-2.511,0-4.95-1.031-6.797-2.807c-1.775-1.775-2.807-4.286-2.807-6.797
							c0-2.51,1.031-5.022,2.807-6.797c3.622-3.55,10.05-3.55,13.593,0c1.847,1.847,2.807,4.286,2.807,6.797
							c0,2.511-0.96,4.949-2.807,6.797C356.35,898.131,353.831,899.162,351.32,899.162z"/>
						<path d="M318.073,867.761c-2.51,0-4.95-1.031-6.797-2.807c-1.776-1.775-2.807-4.286-2.807-6.797
							c0-2.511,1.031-4.949,2.807-6.797c3.622-3.55,10.05-3.55,13.593,0c1.775,1.775,2.807,4.286,2.807,6.797
							c0,2.511-1.031,5.022-2.807,6.797C323.102,866.73,320.583,867.761,318.073,867.761z"/>
						<path d="M340.238,871.456c-2.511,0-4.949-1.031-6.797-2.807c-1.775-1.775-2.807-4.286-2.807-6.797s1.031-5.022,2.807-6.797
							c3.622-3.55,10.051-3.55,13.593,0c1.775,1.775,2.807,4.286,2.807,6.797s-1.031,5.022-2.807,6.797
							C345.267,870.424,342.748,871.456,340.238,871.456z"/>
						<path d="M323.614,843.749c-2.51,0-4.949-1.031-6.797-2.807c-1.775-1.775-2.807-4.286-2.807-6.797
							c0-2.511,1.031-5.022,2.807-6.797c3.55-3.55,10.051-3.55,13.593,0c1.775,1.775,2.807,4.286,2.807,6.797
							c0,2.511-1.031,5.022-2.807,6.797C328.643,842.718,326.124,843.749,323.614,843.749z"/>
						<path d="M319.92,814.196c-2.51,0-5.022-1.031-6.797-2.807c-1.775-1.775-2.807-4.286-2.807-6.797
							c0-2.51,1.031-5.022,2.807-6.797c3.622-3.55,10.051-3.55,13.593,0c1.775,1.775,2.807,4.286,2.807,6.797
							c0,2.511-1.031,5.022-2.807,6.797C324.949,813.164,322.51,814.196,319.92,814.196z"/>
						<path d="M347.626,816.043c-2.511,0-4.949-1.031-6.797-2.807c-1.775-1.775-2.807-4.286-2.807-6.797
							c0-2.51,1.031-5.022,2.807-6.796c3.622-3.55,10.05-3.55,13.593,0c1.775,1.775,2.807,4.286,2.807,6.796
							c0,2.511-1.031,5.022-2.807,6.797C352.655,815.011,350.137,816.043,347.626,816.043z"/>
						<path d="M353.167,849.291c-2.511,0-4.949-1.031-6.797-2.807c-1.775-1.775-2.807-4.286-2.807-6.797
							c0-2.511,1.031-5.022,2.807-6.797c3.622-3.622,10.05-3.55,13.593,0c1.775,1.775,2.807,4.286,2.807,6.797
							c0,2.511-1.031,5.022-2.807,6.797C358.197,848.259,355.678,849.291,353.167,849.291z"/>
						<path d="M369.791,873.303c-2.511,0-5.022-1.031-6.797-2.807c-1.775-1.775-2.807-4.286-2.807-6.797s1.031-5.022,2.807-6.797
							c3.55-3.55,10.05-3.55,13.593,0c1.775,1.775,2.807,4.286,2.807,6.797s-1.031,5.022-2.807,6.797
							C374.821,872.271,372.302,873.303,369.791,873.303z"/>
						<path d="M391.956,891.774c-2.51,0-5.022-1.031-6.796-2.807c-1.776-1.775-2.807-4.286-2.807-6.797
							c0-2.511,1.031-5.022,2.807-6.797c3.55-3.55,10.05-3.55,13.593,0c1.776,1.775,2.807,4.286,2.807,6.797
							c0,2.51-1.031,5.022-2.807,6.797C396.986,890.742,394.467,891.774,391.956,891.774z"/>
						<path d="M388.262,919.48c-2.511,0-5.022-1.031-6.797-2.807c-1.776-1.775-2.807-4.286-2.807-6.797
							c0-2.511,1.031-5.022,2.807-6.797c3.622-3.622,10.05-3.55,13.593,0c1.775,1.775,2.807,4.286,2.807,6.797
							c0,2.511-1.031,5.022-2.807,6.797C393.292,918.449,390.773,919.48,388.262,919.48z"/>
						<path d="M382.721,947.187c-2.511,0-4.95-1.031-6.797-2.807c-1.776-1.775-2.807-4.286-2.807-6.797
							c0-2.511,1.031-5.022,2.807-6.797c3.55-3.55,10.05-3.622,13.593,0c1.776,1.775,2.807,4.286,2.807,6.797
							c0,2.511-1.031,5.022-2.807,6.797C387.75,946.155,385.232,947.187,382.721,947.187z"/>
						<path d="M397.498,973.046c-2.51,0-4.949-1.031-6.797-2.807c-1.776-1.775-2.807-4.286-2.807-6.797
							c0-2.511,1.031-5.022,2.807-6.797c3.55-3.55,10.05-3.622,13.593,0c1.775,1.775,2.807,4.286,2.807,6.797
							c0,2.51-1.031,5.022-2.807,6.797C402.527,972.015,400.008,973.046,397.498,973.046z"/>
						<path d="M390.109,845.596c-2.51,0-4.949-1.031-6.796-2.807c-1.776-1.775-2.807-4.286-2.807-6.797
							c0-2.511,1.031-4.95,2.807-6.797c3.622-3.622,10.05-3.55,13.593,0c1.775,1.847,2.807,4.286,2.807,6.797
							c0,2.511-1.031,5.022-2.807,6.797C395.139,844.565,392.62,845.596,390.109,845.596z"/>
						<path d="M375.333,828.972c-2.511,0-4.95-1.031-6.797-2.807c-1.775-1.775-2.807-4.286-2.807-6.797
							c0-2.51,1.031-5.022,2.807-6.797c3.622-3.622,10.05-3.55,13.593,0c1.776,1.775,2.807,4.286,2.807,6.797
							c0,2.511-1.031,5.022-2.807,6.797C380.362,827.941,377.923,828.972,375.333,828.972z"/>
						<path d="M391.956,784.642c-2.51,0-4.949-1.031-6.796-2.807c-1.776-1.775-2.807-4.286-2.807-6.797s1.031-5.022,2.807-6.797
							c3.55-3.55,10.05-3.55,13.593,0c1.776,1.775,2.807,4.286,2.807,6.797s-1.031,5.022-2.807,6.797
							C396.986,783.611,394.467,784.642,391.956,784.642z"/>
						<path d="M275.589,932.41c-2.511,0-4.949-1.031-6.797-2.807c-1.775-1.775-2.807-4.286-2.807-6.797
							c0-2.511,1.031-5.022,2.807-6.797c3.622-3.55,10.05-3.622,13.593,0c1.775,1.775,2.807,4.286,2.807,6.797
							c0,2.511-1.031,5.022-2.807,6.797C280.619,931.378,278.1,932.41,275.589,932.41z"/>
					</g>
					<g>
						<path d="M480.617,618.403c-2.51,0-5.022-1.031-6.797-2.807c-1.775-1.775-2.807-4.286-2.807-6.797
							c0-2.511,1.031-5.022,2.807-6.797c3.622-3.55,10.05-3.55,13.593,0c1.776,1.775,2.807,4.286,2.807,6.797
							c0,2.51-1.031,5.022-2.807,6.797C485.646,617.372,483.128,618.403,480.617,618.403z"/>
						<path d="M377.18,612.862c-2.511,0-4.949-1.031-6.797-2.807c-1.775-1.775-2.807-4.286-2.807-6.797s1.031-5.022,2.807-6.797
							c3.55-3.55,10.05-3.55,13.593,0c1.776,1.775,2.807,4.286,2.807,6.797s-1.031,5.022-2.807,6.797
							C382.209,611.831,379.69,612.862,377.18,612.862z"/>
						<path d="M159.222,622.097c-2.511,0-4.95-1.031-6.797-2.807c-1.775-1.775-2.807-4.286-2.807-6.797
							c0-2.511,1.031-5.022,2.807-6.797c3.55-3.55,10.05-3.55,13.593,0c1.775,1.775,2.807,4.286,2.807,6.797
							c0,2.51-1.031,5.022-2.807,6.797C164.251,621.066,161.733,622.097,159.222,622.097z"/>
						<path d="M231.259,620.25c-2.511,0-4.95-1.031-6.797-2.807c-1.775-1.775-2.807-4.286-2.807-6.797
							c0-2.511,1.031-4.949,2.807-6.797c3.55-3.55,9.979-3.55,13.593,0c1.775,1.775,2.807,4.286,2.807,6.797
							c0,2.51-1.031,5.022-2.807,6.797C236.288,619.219,233.77,620.25,231.259,620.25z"/>
						<path d="M199.858,625.792c-2.511,0-5.022-1.031-6.797-2.807c-1.775-1.775-2.807-4.286-2.807-6.797
							c0-2.511,1.031-5.022,2.807-6.797c3.622-3.55,10.05-3.55,13.593,0c1.775,1.775,2.807,4.286,2.807,6.797
							c0,2.51-1.031,5.022-2.807,6.797C204.888,624.76,202.449,625.792,199.858,625.792z"/>
						<path d="M279.284,625.792c-2.511,0-5.022-1.031-6.797-2.807c-1.775-1.775-2.807-4.286-2.807-6.797
							c0-2.511,1.031-5.022,2.807-6.797c3.622-3.55,10.05-3.55,13.593,0c1.775,1.775,2.807,4.286,2.807,6.797
							c0,2.51-1.031,5.022-2.807,6.797C284.313,624.76,281.874,625.792,279.284,625.792z"/>
						<path d="M480.617,618.403c-2.51,0-5.022-1.031-6.797-2.807c-1.775-1.775-2.807-4.286-2.807-6.797
							c0-2.511,1.031-5.022,2.807-6.797c3.622-3.55,10.05-3.55,13.593,0c1.776,1.775,2.807,4.286,2.807,6.797
							c0,2.51-1.031,5.022-2.807,6.797C485.646,617.372,483.128,618.403,480.617,618.403z"/>
						<path d="M480.617,618.403c-2.51,0-5.022-1.031-6.797-2.807c-1.775-1.775-2.807-4.286-2.807-6.797
							c0-2.511,1.031-5.022,2.807-6.797c3.622-3.55,10.05-3.55,13.593,0c1.776,1.775,2.807,4.286,2.807,6.797
							c0,2.51-1.031,5.022-2.807,6.797C485.646,617.372,483.128,618.403,480.617,618.403z"/>
					</g>
				</g>
			</g>
		</g>
	</g>
</g>
<g id="Text">
	<text transform="matrix(1 0 0 1 471.3501 839.8086)" style="font-family:'CormorantGaramond-Bold'; font-size:137px;">APPAREL</text>
	<text transform="matrix(1 0 0 1 459.4478 735.5273)"><tspan x="0" y="0" style="font-family:'CormorantGaramond-Bold'; font-size:315px; letter-spacing:-1;">A</tspan><tspan x="191.205" y="0" style="font-family:'CormorantGaramond-Bold'; font-size:315px; letter-spacing:-39;">R</tspan><tspan x="321.298" y="0" style="font-family:'CormorantGaramond-Bold'; font-size:315px; letter-spacing:-1;">T</tspan></text>
	
		<text transform="matrix(1 0 0 1 475.48 933.3164)" style="font-family:'CormorantGaramond-Bold'; font-size:47px; letter-spacing:3;">PASSION FOR FASHION</text>
</g>
</svg>
